G04 ================== begin FILE IDENTIFICATION RECORD ==================*
G04 Layout Name:  remotepanasonicDB9-rout.brd*
G04 Film Name:    gerber_buttom-layer2*
G04 File Format:  Gerber RS274X*
G04 File Origin:  Cadence Allegro 16.6-P004*
G04 Origin Date:  Thu Dec 17 13:28:18 2015*
G04 *
G04 Layer:  VIA CLASS/BOTTOM*
G04 Layer:  PIN/BOTTOM*
G04 Layer:  ETCH/BOTTOM*
G04 Layer:  DRAWING FORMAT/OUTLINE*
G04 Layer:  DRAWING FORMAT/TITLE_BLOCK*
G04 Layer:  DRAWING FORMAT/TITLE_DATA*
G04 Layer:  DRAWING FORMAT/REVISION_BLOCK*
G04 Layer:  DRAWING FORMAT/REVISION_DATA*
G04 Layer:  BOARD GEOMETRY/OUTLINE*
G04 *
G04 Offset:    (0.00 0.00)*
G04 Mirror:    No*
G04 Mode:      Positive*
G04 Rotation:  0*
G04 FullContactRelief:  No*
G04 UndefLineWidth:     8.00*
G04 ================== end FILE IDENTIFICATION RECORD ====================*
%FSLAX25Y25*MOIN*%
%IR0*IPPOS*OFA0.00000B0.00000*MIA0B0*SFA1.00000B1.00000*%
%ADD18C,.05*%
%ADD15C,.024*%
%ADD25C,.054*%
%ADD11C,.065*%
%ADD19R,.05X.05*%
%ADD24R,.054X.054*%
%ADD12R,.065X.065*%
%ADD21C,.05906*%
%ADD22R,.05906X.05906*%
%ADD14O,.07874X.16535*%
%ADD13O,.16535X.07874*%
%ADD10C,.2*%
%ADD20R,.06X.05*%
%ADD27C,.118*%
%ADD26C,.15354*%
%ADD23O,.05906X.07874*%
%AMMACRO17*
4,1,44,.20669,-.20591,
-.20669,-.20591,
-.207374,-.20585,
-.208037,-.205673,
-.208659,-.205383,
-.209222,-.20499,
-.209708,-.204504,
-.210102,-.203942,
-.210392,-.20332,
-.21057,-.202657,
-.21063,-.201973,
-.21063,-.20197,
-.21063,.20197,
-.21057,.202654,
-.210393,.203317,
-.210103,.203939,
-.20971,.204502,
-.209224,.204988,
-.208662,.205382,
-.20804,.205672,
-.207377,.20585,
-.206693,.20591,
-.20669,.20591,
.20669,.20591,
.207374,.20585,
.208037,.205673,
.208659,.205383,
.209222,.20499,
.209708,.204504,
.210102,.203942,
.210392,.20332,
.21057,.202657,
.21063,.201973,
.21063,.20197,
.21063,-.20197,
.21057,-.202654,
.210393,-.203317,
.210103,-.203939,
.20971,-.204502,
.209224,-.204988,
.208662,-.205382,
.20804,-.205672,
.207377,-.20585,
.206693,-.20591,
.20669,-.20591,
0.0*
%
%ADD17MACRO17*%
%AMMACRO16*
4,1,44,.0248,-.0689,
-.0248,-.0689,
-.025484,-.068841,
-.026147,-.068663,
-.026769,-.068374,
-.027332,-.06798,
-.027817,-.067495,
-.028211,-.066933,
-.028502,-.066311,
-.02868,-.065648,
-.02874,-.064965,
-.02874,-.06496,
-.02874,.06496,
-.028681,.065644,
-.028503,.066307,
-.028214,.066929,
-.02782,.067492,
-.027335,.067977,
-.026773,.068371,
-.026151,.068662,
-.025488,.06884,
-.024805,.0689,
-.0248,.0689,
.0248,.0689,
.025484,.068841,
.026147,.068663,
.026769,.068374,
.027332,.06798,
.027817,.067495,
.028211,.066933,
.028502,.066311,
.02868,.065648,
.02874,.064965,
.02874,.06496,
.02874,-.06496,
.028681,-.065644,
.028503,-.066307,
.028214,-.066929,
.02782,-.067492,
.027335,-.067977,
.026773,-.068371,
.026151,-.068662,
.025488,-.06884,
.024805,-.0689,
.0248,-.0689,
0.0*
%
%ADD16MACRO16*%
%ADD28C,.008*%
%ADD32C,.06004*%
%ADD35C,.06404*%
%ADD34C,.0691*%
%ADD30C,.07504*%
%ADD29C,.21004*%
%ADD33R,.07004X.06004*%
%ADD31R,.07504X.07504*%
G75*
%LPD*%
G75*
G36*
G01X-49Y1D02*
Y235999D01*
X363249D01*
Y1D01*
X-49D01*
G37*
%LPC*%
G75*
G36*
G01X114519Y154718D02*
G02X113624Y155612I0J895D01*
G01Y168606D01*
G02X114519Y169500I895J-1D01*
G01X119481D01*
G02X120376Y168606I0J-895D01*
G01Y155612D01*
G02X119481Y154718I-895J1D01*
G01X114519D01*
G37*
G36*
G01X40542Y196170D02*
G02X31664I-4439J-1D01*
G01Y204830D01*
G02X40542I4439J1D01*
G01Y196170D01*
G37*
G36*
G01X44372Y177558D02*
G02Y186434I0J4438D01*
G01X53032D01*
G02Y177558I0J-4438D01*
G01X44372D01*
G37*
G36*
G01X313812Y218771D02*
G03X314453Y218383I393J-74D01*
G02X311655Y214177I5078J-6412D01*
G03X311049Y214619I-385J108D01*
G02X313812Y218771I-3527J5343D01*
G37*
G36*
G01X276502Y177872D02*
X281454D01*
X281500Y178007D01*
G02Y175933I3030J-1037D01*
G01X281454Y176068D01*
X274698D01*
Y186648D01*
X251144D01*
G02Y188452I-1444J902D01*
G01X276502D01*
Y177872D01*
G37*
G36*
G01X188644Y158300D02*
X203248D01*
Y159656D01*
G02Y162544I902J1444D01*
G01Y186352D01*
X214106D01*
G02Y184548I1444J-902D01*
G01X205052D01*
Y162544D01*
G02Y159656I-902J-1444D01*
G01Y156498D01*
X188644D01*
G02Y158300I-1444J901D01*
G37*
G36*
G01X249502Y158444D02*
G02X247698I-902J-1444D01*
G01Y179806D01*
G02X247156Y180348I902J1444D01*
G01X243998D01*
Y193372D01*
X283628D01*
Y193894D01*
X283493Y193940D01*
G02X285567I1037J3030D01*
G01X285432Y193894D01*
Y191568D01*
X245802D01*
Y182152D01*
X247156D01*
G02X249502Y179806I1444J-902D01*
G01Y158444D01*
G37*
G36*
G01X314453Y160557D02*
G03X313812Y160169I-248J-314D01*
G02X311049Y164321I-6290J-1191D01*
G03X311655Y164763I221J334D01*
G02X314453Y160557I7876J2206D01*
G37*
G36*
G01X68752Y76452D02*
X91406D01*
G02Y74648I1444J-902D01*
G01X66948D01*
Y108938D01*
X44645D01*
X44603Y108794D01*
G02Y110886I-3603J1046D01*
G01X44645Y110742D01*
X68752D01*
Y76452D01*
G37*
G36*
G01X294702Y80498D02*
Y70944D01*
G02X292898I-902J-1444D01*
G01Y82302D01*
X317055D01*
X317097Y82446D01*
G02Y80354I3603J-1046D01*
G01X317055Y80498D01*
X294702D01*
G37*
G36*
G01X134602Y88156D02*
Y67644D01*
G02X132798I-902J-1444D01*
G01Y88156D01*
G02X134602I902J1444D01*
G37*
G36*
G01X286656Y40498D02*
X206944D01*
G02Y42302I-1444J902D01*
G01X286656D01*
G02Y40498I1444J-902D01*
G37*
G36*
G01X246852Y33202D02*
X255255D01*
G02Y31398I1444J-902D01*
G01X245048D01*
Y36456D01*
G02X246852I902J1444D01*
G01Y33202D01*
G37*
G36*
G01X161575Y103714D02*
G03X162270Y103983I295J270D01*
G01Y135903D01*
G02X164074I902J1444D01*
G01Y10891D01*
G02X162270I-902J-1444D01*
G01Y96829D01*
G03X161575Y97098I-400J-1D01*
G02X155564Y99422I-2556J2324D01*
G01Y101390D01*
G02X161575Y103714I3455J0D01*
G37*
G36*
G01X99481Y154718D02*
X94519D01*
G02X93624Y155612I0J895D01*
G01Y168606D01*
G02X94519Y169500I895J-1D01*
G01X96098D01*
Y177558D01*
X60398D01*
Y191821D01*
X60246Y191858D01*
G02X56862Y196170I1054J4311D01*
G01Y204830D01*
G02X60246Y209142I4438J1D01*
G01X60398Y209179D01*
Y224866D01*
X154302D01*
Y217002D01*
X156902D01*
Y210998D01*
X149898D01*
Y217002D01*
X152498D01*
Y223064D01*
X62202D01*
Y209179D01*
X62354Y209142D01*
G02X65738Y204830I-1054J-4311D01*
G01Y196170D01*
G02X62354Y191858I-4438J-1D01*
G01X62202Y191821D01*
Y179362D01*
X85191D01*
G03X85543Y179951I0J400D01*
G02X85436Y180377I788J424D01*
G01Y220771D01*
G02X86331Y221666I895J0D01*
G01X127669D01*
G02X128564Y220771I0J-895D01*
G01Y180377D01*
G02X127669Y179482I-895J0D01*
G01X108944D01*
G03X108574Y178930I0J-400D01*
G02X107902Y176839I-1574J-648D01*
G01Y169500D01*
X109481D01*
G02X110376Y168606I0J-895D01*
G01Y155612D01*
G02X109481Y154718I-895J1D01*
G01X104519D01*
G02X103624Y155612I0J895D01*
G01Y168606D01*
G02X104519Y169500I895J-1D01*
G01X106098D01*
Y176839D01*
G02X105426Y178930I902J1443D01*
G03X105056Y179482I-370J152D01*
G01X97902D01*
Y169500D01*
X99481D01*
G02X100376Y168606I0J-895D01*
G01Y155612D01*
G02X99481Y154718I-895J1D01*
G37*
G36*
G01X297732Y168768D02*
X291328D01*
Y171098D01*
X268544D01*
G02Y172902I-1444J902D01*
G01X289128D01*
Y192872D01*
X291454D01*
X291500Y193007D01*
G02Y190933I3030J-1037D01*
G01X291454Y191068D01*
X290932D01*
Y183626D01*
G03X291687Y183442I400J0D01*
G02Y180498I2843J-1472D01*
G03X290932Y180314I-355J-184D01*
G01Y175172D01*
X297732D01*
Y168768D01*
G37*
G36*
G01X150402Y179727D02*
G02X148598I-902J-1444D01*
G01Y194498D01*
X141198D01*
Y200502D01*
X148598D01*
Y202356D01*
G02X150402I902J1444D01*
G01Y200502D01*
X157202D01*
Y194498D01*
X150402D01*
Y179727D01*
G37*
G36*
G01X179441Y18494D02*
G02X177359I-1041J-3294D01*
G01X177498Y18539D01*
Y149140D01*
X149498D01*
Y152603D01*
G02X148826Y154694I902J1443D01*
G03X148456Y155246I-370J152D01*
G01X139044D01*
G02Y157048I-1444J901D01*
G01X156602D01*
Y154142D01*
X160456D01*
G03X160826Y154694I0J400D01*
G02X160698Y155339I1574J648D01*
G03X160298Y155739I-400J0D01*
G02X159398Y158885I2J1702D01*
G01Y215902D01*
X218657D01*
G02Y214100I1444J-901D01*
G01X161202D01*
Y197872D01*
X244056D01*
G02Y196070I1444J-901D01*
G01X163302D01*
Y156785D01*
G02X163974Y154694I-902J-1443D01*
G03X164344Y154142I370J-152D01*
G01X180698D01*
Y158640D01*
X171844D01*
G02Y160442I-1444J901D01*
G01X182502D01*
Y146889D01*
G03X183111Y146548I400J0D01*
G02X183730Y146777I889J-1451D01*
G03X184034Y147329I-64J395D01*
G02X187044Y148898I1565J669D01*
G01X196756D01*
G02X199305Y146703I1444J-901D01*
G03X199565Y145998I260J-305D01*
G01X260152D01*
Y99102D01*
X261056D01*
G03X261426Y99653I0J400D01*
G02X263902Y98856I1574J647D01*
G01Y97298D01*
X262252D01*
Y92444D01*
G02Y89556I-902J-1444D01*
G01Y63002D01*
X263902D01*
Y61444D01*
G02X261426Y60647I-902J-1444D01*
G03X261056Y61198I-370J151D01*
G01X260448D01*
Y63856D01*
G03X259897Y64226I-400J0D01*
G02X257806Y64898I-648J1574D01*
G01X182502D01*
Y52302D01*
X248657D01*
G02X251207Y50106I1443J-903D01*
G03X251467Y49402I260J-304D01*
G01X258706D01*
G02Y47600I1444J-901D01*
G01X179302D01*
Y18539D01*
X179441Y18494D01*
G37*
G36*
G01X189302Y8546D02*
X171652D01*
Y12606D01*
G03X170956Y12875I-400J0D01*
G02X167359Y18494I-2556J2325D01*
G01X167498Y18539D01*
Y20254D01*
X167598D01*
Y34356D01*
G03X167047Y34726I-400J0D01*
G02X165498Y37744I-648J1574D01*
G01Y138403D01*
G02X164826Y140494I902J1443D01*
G03X164456Y141046I-370J152D01*
G01X153844D01*
G02X151196Y140744I-1444J901D01*
G03X150550Y140630I-283J-282D01*
G02X149908Y139903I-1544J717D01*
G01Y138346D01*
X147894D01*
Y133291D01*
G03X148445Y132921I400J0D01*
G02X149994Y129903I648J-1574D01*
G01Y122997D01*
G02X150791Y121650I-902J-1443D01*
G03X151421Y121345I400J22D01*
G02X153302Y118509I979J-1392D01*
G01Y104248D01*
X152956D01*
Y103941D01*
X153046Y103882D01*
G02X154600Y100997I-1901J-2885D01*
G01Y99029D01*
G02X148589Y96705I-3455J0D01*
G03X147894Y96436I-295J-270D01*
G01Y54544D01*
G02X146090I-902J-1444D01*
G01Y140148D01*
X147062D01*
G03X147432Y140700I0J400D01*
G02X147735Y142479I1574J647D01*
G03X147437Y143146I-298J267D01*
G01X129302D01*
Y136998D01*
X127202D01*
Y128791D01*
G02X124856Y126446I-902J-1443D01*
G01X117002D01*
Y125844D01*
G02X115198I-902J-1444D01*
G01Y128248D01*
X124856D01*
G02X125398Y128791I1445J-900D01*
G01Y136998D01*
X123298D01*
Y143146D01*
X98602D01*
Y37444D01*
G02X97053Y34426I-901J-1444D01*
G03X96502Y34056I-151J-370D01*
G01Y33202D01*
X140898D01*
Y49056D01*
G03X140347Y49426I-400J0D01*
G02X138798Y52444I-648J1574D01*
G01Y137903D01*
G02X140602I902J1444D01*
G01Y70244D01*
G03X141153Y69874I400J0D01*
G02X142702Y66856I648J-1574D01*
G01Y33202D01*
X159302D01*
Y18654D01*
X161854D01*
Y11746D01*
X154946D01*
Y18654D01*
X157498D01*
Y31400D01*
X96502D01*
Y14244D01*
G02X94698I-902J-1444D01*
G01Y66398D01*
X87594D01*
G02Y68202I-1444J902D01*
G01X96798D01*
Y144948D01*
X153056D01*
G02X153302Y145256I1444J-901D01*
G03X153020Y145940I-282J284D01*
G01X94802D01*
Y86944D01*
G02X92998I-902J-1444D01*
G01Y147742D01*
X171502D01*
Y130691D01*
G02X169953Y127673I-901J-1444D01*
G03X169402Y127303I-151J-370D01*
G01Y18507D01*
G02X170956Y17525I-1002J-3307D01*
G03X171652Y17794I296J269D01*
G01Y123903D01*
G02X173454I901J1444D01*
G01Y10348D01*
X187498D01*
Y11861D01*
X187359Y11906D01*
G02X189441I1041J3294D01*
G01X189302Y11861D01*
Y8546D01*
G37*
G54D32*
X126300Y119134D03*
G54D35*
X284530Y186970D03*
Y206970D03*
X294530Y201970D03*
X338821Y163387D03*
Y173387D03*
Y205553D03*
Y215553D03*
G54D34*
X198400Y15200D03*
G54D30*
X41000Y77440D03*
X29900Y82840D03*
X41000Y99040D03*
Y88240D03*
X29900Y115240D03*
Y104440D03*
Y93640D03*
X320700Y70600D03*
Y92200D03*
Y103000D03*
X331800Y65200D03*
Y76000D03*
Y86800D03*
Y97600D03*
G54D29*
X35600Y49540D03*
Y148540D03*
X326100Y31900D03*
Y130900D03*
G54D33*
X144400Y214000D03*
G54D31*
X41000Y120640D03*
X320700Y59800D03*
%LPD*%
G75*
G36*
G01X148589Y103321D02*
G02X147894Y103590I-295J270D01*
G01Y119609D01*
G02X148445Y119979I400J0D01*
G03X150071Y120161I647J1574D01*
G02X150701Y119856I230J-327D01*
G03X151498Y118509I1699J96D01*
G01Y106052D01*
X150244D01*
Y104335D01*
X150104Y104291D01*
G03X148589Y103321I1041J-3294D01*
G37*
G36*
G01X156444Y142848D02*
G02X156074Y143400I0J400D01*
G03X155698Y145256I-1574J647D01*
G02X155980Y145940I282J284D01*
G01X169698D01*
Y142848D01*
X156444D01*
G37*
G36*
G01X151302Y150942D02*
Y152603D01*
G03X151974Y154694I-902J1443D01*
G02X152344Y155246I370J152D01*
G01X154798D01*
Y152340D01*
X179098D01*
Y150942D01*
X151302D01*
G37*
G36*
G01X180902Y49402D02*
Y50498D01*
X248657D01*
G03X248995Y50106I1443J903D01*
G02X248735Y49402I-260J-304D01*
G01X180902D01*
G37*
G36*
G01X184602Y71790D02*
Y127357D01*
G02X184938Y127503I200J0D01*
G03X185198Y127303I1163J1243D01*
G01Y71844D01*
G03X184938Y71644I903J-1443D01*
G02X184602Y71790I-136J146D01*
G37*
G36*
G01X235398Y138446D02*
Y133891D01*
G03X237202I902J-1444D01*
G01Y140248D01*
X185444D01*
G03X183111Y140798I-1444J-901D01*
G02X182502Y141139I-209J341D01*
G01Y143305D01*
G02X183111Y143646I400J0D01*
G03X185444Y144196I889J1451D01*
G01X258348D01*
Y83744D01*
G03X259897Y80726I901J-1444D01*
G02X260448Y80356I151J-370D01*
G01Y67744D01*
G02X259897Y67374I-400J0D01*
G03X257806Y66702I-648J-1574D01*
G01X184602D01*
Y68608D01*
G02X185211Y68949I400J0D01*
G03X187002Y71844I889J1451D01*
G01Y127303D01*
G03X187544Y127846I-903J1443D01*
G01X244102D01*
Y134703D01*
G03X242298I-902J1444D01*
G01Y129648D01*
X187544D01*
G03X185211Y130198I-1444J-901D01*
G02X184602Y130539I-209J341D01*
G01Y133903D01*
G03X183053Y136921I-901J1444D01*
G02X182502Y137291I-151J370D01*
G01Y137555D01*
G02X183111Y137896I400J0D01*
G03X185444Y138446I889J1451D01*
G01X235398D01*
G37*
G36*
G01X186965Y145998D02*
G02X186705Y146703I0J400D01*
G03X187044Y147096I-1104J1295D01*
G01X196756D01*
G03X197095Y146703I1443J902D01*
G02X196835Y145998I-260J-305D01*
G01X186965D01*
G37*
%LPC*%
G75*
G36*
G01X190202Y120109D02*
Y106944D01*
G02X188398I-902J-1444D01*
G01Y120109D01*
G02X190202I902J1444D01*
G37*
G36*
G01X228202Y97656D02*
Y74894D01*
G02X226398I-902J-1444D01*
G01Y97656D01*
G02X228202I902J1444D01*
G37*
%LPD*%
G75*
G54D10*
X35600Y49540D03*
Y148540D03*
X326100Y31900D03*
Y130900D03*
G54D20*
X144400Y214000D03*
X144700Y197500D03*
X153700D03*
X153400Y214000D03*
G54D11*
X41000Y77440D03*
X29900Y82840D03*
X41000Y109840D03*
Y99040D03*
Y88240D03*
X29900Y115240D03*
Y104440D03*
Y93640D03*
X320700Y70600D03*
Y81400D03*
Y92200D03*
Y103000D03*
X331800Y65200D03*
Y76000D03*
Y86800D03*
Y97600D03*
G54D21*
X168400Y15200D03*
X198400D03*
X188400D03*
X178400D03*
G54D12*
X41000Y120640D03*
X320700Y59800D03*
G54D13*
X48702Y181996D03*
G54D22*
X158400Y15200D03*
G54D23*
X151145Y100013D03*
X159019Y100406D03*
G54D14*
X36103Y200500D03*
X61300D03*
G54D24*
X294530Y171970D03*
G54D15*
X95600Y12800D03*
X97700Y36000D03*
X86150Y67300D03*
X92850Y75550D03*
X93900Y85500D03*
X107000Y178283D03*
X139700Y51000D03*
X133700Y66200D03*
X141800Y68300D03*
X133700Y89600D03*
X116100Y124400D03*
X126300Y127347D03*
X139700Y139347D03*
X137600Y156147D03*
X138600Y185601D03*
X163172Y9447D03*
X166400Y36300D03*
X146992Y53100D03*
X152400Y141947D03*
X170600Y129247D03*
X149092Y121553D03*
Y131347D03*
X154500Y144047D03*
X166400Y139847D03*
X172553Y125347D03*
X152400Y119953D03*
X149006Y141347D03*
X163172Y137347D03*
X150400Y154047D03*
X160300Y157441D03*
X162400Y155341D03*
X170400Y159541D03*
X149500Y178283D03*
Y203800D03*
X186100Y70400D03*
X189300Y105500D03*
Y121553D03*
X186100Y128747D03*
X183700Y135347D03*
X184000Y145097D03*
Y139347D03*
X187200Y157399D03*
X198200Y147997D03*
X185600D03*
X205500Y41400D03*
X227300Y73450D03*
Y99100D03*
X204150Y161100D03*
X215550Y185450D03*
X220101Y215001D03*
X256699Y32300D03*
X245950Y37900D03*
X260150Y48501D03*
X250101Y51400D03*
X259250Y65800D03*
X263000Y60000D03*
X259250Y82300D03*
X261350Y91000D03*
X263000Y100300D03*
X243200Y136147D03*
X236300Y132447D03*
X248600Y157000D03*
X249700Y187550D03*
X245500Y196971D03*
X248600Y181250D03*
X288100Y41400D03*
X277249Y79800D03*
Y64300D03*
X279400Y100599D03*
X267100Y172000D03*
X293800Y69500D03*
G54D16*
X107000Y162109D03*
X97000D03*
X117000D03*
G54D25*
X284530Y176970D03*
Y186970D03*
Y196970D03*
Y206970D03*
X294530Y181970D03*
Y191970D03*
Y201970D03*
X338821Y163387D03*
Y173387D03*
Y205553D03*
Y215553D03*
G54D17*
X107000Y200574D03*
G54D26*
X319530Y166970D03*
Y211970D03*
G54D27*
X307522Y158978D03*
Y219962D03*
G54D18*
X126300Y119134D03*
G54D28*
G01X-50Y0D02*
Y236000D01*
X363250D01*
Y0D01*
X-50D01*
G01X41000Y77440D02*
X35950D01*
G01D02*
Y115240D01*
G01X41000Y73488D02*
Y77440D01*
G01D02*
Y81392D01*
G01Y77440D02*
X44952D01*
G01X29900Y111288D02*
Y115240D01*
G01X41000Y109840D02*
X67850D01*
Y75550D01*
X92850D01*
G01X35950Y115240D02*
X29900D01*
G01X22800D02*
X29900D01*
G01X36103Y175740D02*
X22800D01*
Y115240D01*
G01X29900D02*
Y119192D01*
G01X36103Y200500D02*
Y175740D01*
G01Y200500D02*
Y209470D01*
G01X31464Y200500D02*
X36103D01*
G01D02*
X40742D01*
G01X153400Y214000D02*
Y223965D01*
X61300D01*
Y200500D01*
G01X97000Y162109D02*
Y178460D01*
X61300D01*
Y200500D01*
G01X95600Y12800D02*
Y32301D01*
G01X154500Y144047D02*
X97700D01*
Y36000D01*
G01X95600Y32301D02*
X141800D01*
G01X86150Y67300D02*
X95600D01*
Y32301D01*
G01X170600Y129247D02*
Y146841D01*
X93900D01*
Y85500D01*
G01X107000Y162109D02*
Y178283D01*
G01D02*
Y200574D01*
G01X141800Y32301D02*
X158400D01*
Y15200D01*
G01X141800Y32301D02*
Y68300D01*
G01X139700Y139347D02*
Y51000D01*
G01X133700Y66200D02*
Y89600D01*
G01X116100Y124400D02*
Y127347D01*
X126300D01*
G01D02*
Y140000D01*
G01X137600Y156147D02*
X155700D01*
Y153241D01*
X180000D01*
Y48501D01*
X260150D01*
G01X117000Y162109D02*
Y177784D01*
G01Y154517D02*
Y162109D01*
G01X113424D02*
X117000D01*
G01D02*
X120576D01*
G01X144700Y197500D02*
X140200D01*
G01X138600Y185601D02*
Y197500D01*
X140200D01*
G01X117000Y177784D02*
X138600D01*
Y185601D01*
G01X140200Y214000D02*
Y197500D01*
G01X144400Y214000D02*
X140200D01*
G01X168400Y15200D02*
Y19353D01*
X168500D01*
Y141947D01*
X152400D01*
G01X163172Y137347D02*
Y9447D01*
G01X166400Y139847D02*
Y36300D01*
G01X149006Y141347D02*
Y139247D01*
X146992D01*
Y53100D01*
G01X152400Y119953D02*
Y105150D01*
X151145D01*
Y100013D01*
G01X149092Y131347D02*
Y121553D01*
G01X178400Y15200D02*
Y150041D01*
X150400D01*
Y154047D01*
G01X160300Y157441D02*
Y215001D01*
X220101D01*
G01X162400Y155341D02*
Y196971D01*
X245500D01*
G01X170400Y159541D02*
X181600D01*
Y51400D01*
X250101D01*
G01X149500Y203800D02*
Y197500D01*
G01D02*
Y178283D01*
G01X153700Y197500D02*
X149500D01*
G01X144700Y194298D02*
Y197500D01*
G01D02*
Y200702D01*
G01X144400Y210798D02*
Y214000D01*
G01D02*
Y217202D01*
G01Y214000D02*
X148102D01*
G01X188400Y15200D02*
Y9447D01*
X172553D01*
Y125347D01*
G01X198400Y11545D02*
Y15200D01*
G01D02*
Y18855D01*
G01X194745Y15200D02*
X198400D01*
G01D02*
X202055D01*
G01X186100Y70400D02*
Y128747D01*
G01X183700Y135347D02*
Y65800D01*
X259250D01*
G01X189300Y105500D02*
Y121553D01*
G01X186100Y128747D02*
X243200D01*
Y136147D01*
G01X184000Y139347D02*
X236300D01*
Y132447D01*
G01X187200Y157399D02*
X204150D01*
Y161100D01*
G01X185600Y147997D02*
X198200D01*
G01X184000Y145097D02*
X259250D01*
Y82300D01*
G01X288100Y41400D02*
X205500D01*
G01X227300Y99100D02*
Y73450D01*
G01X204150Y161100D02*
Y185450D01*
X215550D01*
G01X245950Y37900D02*
Y32300D01*
X256699D01*
G01X263000Y60000D02*
Y62100D01*
X261350D01*
Y91000D01*
G01D02*
Y98200D01*
X263000D01*
Y100300D01*
G01X248600Y181250D02*
Y157000D01*
G01X284530Y176970D02*
X275600D01*
Y187550D01*
X249700D01*
G01X284530Y196970D02*
Y192470D01*
X244900D01*
Y181250D01*
X248600D01*
G01X277249Y79800D02*
Y64300D01*
G01X279400Y100599D02*
X277249D01*
Y79800D01*
G01X294530Y100599D02*
X279400D01*
G01X294530Y191970D02*
X290030D01*
Y172000D01*
X267100D01*
G01X320700Y81400D02*
X293800D01*
Y69500D01*
G01X320700Y55848D02*
Y59800D01*
G01D02*
Y63752D01*
G01X316748Y59800D02*
X320700D01*
G01D02*
X324652D01*
G01X294530Y171970D02*
Y100599D01*
G01Y171970D02*
Y175372D01*
G01Y171970D02*
X297932D01*
G54D19*
X126300Y140000D03*
M02*
