G04 ================== begin FILE IDENTIFICATION RECORD ==================*
G04 Layout Name:  remotepanasonicDB9-rout.brd*
G04 Film Name:    gerber_smdtop*
G04 File Format:  Gerber RS274X*
G04 File Origin:  Cadence Allegro 16.6-P004*
G04 Origin Date:  Thu Dec 17 13:28:18 2015*
G04 *
G04 Layer:  VIA CLASS/PASTEMASK_TOP*
G04 Layer:  PIN/PASTEMASK_TOP*
G04 Layer:  DRAWING FORMAT/OUTLINE*
G04 Layer:  DRAWING FORMAT/TITLE_BLOCK*
G04 Layer:  DRAWING FORMAT/TITLE_DATA*
G04 Layer:  DRAWING FORMAT/REVISION_BLOCK*
G04 Layer:  DRAWING FORMAT/REVISION_DATA*
G04 Layer:  BOARD GEOMETRY/OUTLINE*
G04 *
G04 Offset:    (0.00 0.00)*
G04 Mirror:    No*
G04 Mode:      Positive*
G04 Rotation:  0*
G04 FullContactRelief:  No*
G04 UndefLineWidth:     2.00*
G04 ================== end FILE IDENTIFICATION RECORD ====================*
%FSLAX25Y25*MOIN*%
%IR0*IPPOS*OFA0.00000B0.00000*MIA0B0*SFA1.00000B1.00000*%
%ADD14R,.05X.05*%
%ADD19R,.036X.036*%
%ADD15C,.05906*%
%ADD16R,.05906X.05906*%
%ADD11O,.07874X.16535*%
%ADD10O,.16535X.07874*%
%ADD20C,.12*%
%ADD12R,.06X.05*%
%ADD17O,.011X.05906*%
%ADD13O,.05906X.011*%
%ADD18O,.05906X.07874*%
%ADD21C,.002*%
G75*
%LPD*%
G75*
G54D10*
X48702Y181996D03*
G54D20*
X307522Y158978D03*
Y219962D03*
G54D11*
X36103Y200500D03*
X61300D03*
G54D21*
G01X-50Y0D02*
Y236000D01*
X363250D01*
Y0D01*
X-50D01*
G54D12*
X82800Y16500D03*
X73800D03*
X83300Y36000D03*
X74300D03*
X78000Y108000D03*
X80200Y85500D03*
X77600Y124100D03*
X111400Y15700D03*
X102400D03*
X111600Y36300D03*
X102600D03*
X112000Y109000D03*
X103000D03*
X87000Y108000D03*
X89200Y85500D03*
X111650Y85600D03*
X102650D03*
X111400Y124400D03*
X102400D03*
X86600Y124100D03*
X111600Y139000D03*
X102600D03*
X110200Y173000D03*
X101200D03*
X111600Y154700D03*
X102600D03*
X103200Y202500D03*
X94200D03*
X138500Y85400D03*
X129500D03*
X126400Y66000D03*
X117400D03*
X134600Y172900D03*
X125600D03*
X155700Y66200D03*
X146700D03*
X161500Y172600D03*
X152500D03*
X186300Y85300D03*
X177300D03*
X186200Y99700D03*
X177200D03*
X204500Y119000D03*
X195500D03*
X202900Y138400D03*
X193900D03*
X190300Y170600D03*
X181300D03*
X202500Y153700D03*
X193500D03*
X196300Y203800D03*
X187300D03*
X190700Y185600D03*
X181700D03*
X196100Y220500D03*
X187100D03*
X220800Y27300D03*
X211800D03*
X220900Y45700D03*
X211900D03*
X228400Y140400D03*
X219400D03*
X227400Y118600D03*
X218400D03*
X228200Y157000D03*
X219200D03*
X225200Y203800D03*
X216200D03*
X224800Y220200D03*
X215800D03*
X260400Y24300D03*
X245800Y66000D03*
X236800D03*
X245400Y82000D03*
X236400D03*
X244800Y99100D03*
X235800D03*
X262400Y141300D03*
X253400D03*
X262600Y172000D03*
X253600D03*
X262300Y157000D03*
X253300D03*
X250300Y204400D03*
X241300D03*
X263400Y186800D03*
X254400D03*
X249500Y219800D03*
X240500D03*
X269400Y24300D03*
X292700Y79800D03*
X283700D03*
X292700Y60600D03*
X283700D03*
X292600Y102700D03*
X283600D03*
G54D13*
X144353Y121347D03*
Y123347D03*
Y125347D03*
Y127347D03*
Y129347D03*
Y131347D03*
Y133347D03*
Y135347D03*
Y137347D03*
Y139347D03*
Y141347D03*
Y143347D03*
X178447D03*
Y141347D03*
Y139347D03*
Y137347D03*
Y135347D03*
Y133347D03*
Y131347D03*
Y129347D03*
Y127347D03*
Y125347D03*
Y123347D03*
Y121347D03*
G54D14*
X126300Y140000D03*
G54D15*
X168400Y15200D03*
X198400D03*
X188400D03*
X178400D03*
G54D16*
X158400D03*
G54D17*
X170400Y115300D03*
X168400D03*
X166400D03*
X164400D03*
X162400D03*
X160400D03*
X158400D03*
X156400D03*
X154400D03*
X152400D03*
X150400D03*
Y149394D03*
X152400D03*
X154400D03*
X156400D03*
X158400D03*
X160400D03*
X162400D03*
X164400D03*
X166400D03*
X168400D03*
X170400D03*
X172400Y115300D03*
Y149394D03*
G54D18*
X151145Y100013D03*
X159019Y100406D03*
G54D19*
X243450Y24400D03*
X235950D03*
X242950Y42900D03*
X235450D03*
X260150Y38800D03*
X259250Y78800D03*
Y57800D03*
Y99600D03*
X291450Y20600D03*
X283950D03*
X291850Y38300D03*
X284350D03*
X267650Y38800D03*
X266750Y78800D03*
Y57800D03*
Y99600D03*
M02*
