G04 ================== begin FILE IDENTIFICATION RECORD ==================*
G04 Layout Name:  remotepanasonicDB9-rout.brd*
G04 Film Name:    gerber_top-layer1*
G04 File Format:  Gerber RS274X*
G04 File Origin:  Cadence Allegro 16.6-P004*
G04 Origin Date:  Thu Dec 17 13:28:17 2015*
G04 *
G04 Layer:  VIA CLASS/TOP*
G04 Layer:  PIN/TOP*
G04 Layer:  ETCH/TOP*
G04 Layer:  DRAWING FORMAT/OUTLINE*
G04 Layer:  DRAWING FORMAT/TITLE_BLOCK*
G04 Layer:  DRAWING FORMAT/TITLE_DATA*
G04 Layer:  DRAWING FORMAT/REVISION_BLOCK*
G04 Layer:  DRAWING FORMAT/REVISION_DATA*
G04 Layer:  BOARD GEOMETRY/OUTLINE*
G04 *
G04 Offset:    (0.00 0.00)*
G04 Mirror:    No*
G04 Mode:      Positive*
G04 Rotation:  0*
G04 FullContactRelief:  No*
G04 UndefLineWidth:     2.00*
G04 ================== end FILE IDENTIFICATION RECORD ====================*
%FSLAX25Y25*MOIN*%
%IR0*IPPOS*OFA0.00000B0.00000*MIA0B0*SFA1.00000B1.00000*%
%ADD19C,.05*%
%ADD17C,.024*%
%ADD28C,.054*%
%ADD11C,.065*%
%ADD20R,.05X.05*%
%ADD27R,.054X.054*%
%ADD25R,.036X.036*%
%ADD12R,.065X.065*%
%ADD21C,.05906*%
%ADD22R,.05906X.05906*%
%ADD14O,.07874X.16535*%
%ADD13O,.16535X.07874*%
%ADD10C,.2*%
%ADD15R,.06X.05*%
%ADD26R,.036X.05*%
%ADD16R,.085X.013*%
%ADD30C,.118*%
%ADD23O,.011X.05906*%
%ADD18O,.05906X.011*%
%ADD29C,.15354*%
%ADD24O,.05906X.07874*%
%ADD31C,.002*%
%ADD32C,.008*%
%ADD41C,.06404*%
%ADD37C,.0691*%
%ADD34C,.07504*%
%ADD33C,.21004*%
%ADD36R,.07004X.06004*%
%ADD40R,.06404X.06404*%
%ADD39R,.04604X.04604*%
%ADD35R,.07504X.07504*%
%ADD38R,.06908X.06908*%
G75*
%LPD*%
G75*
G36*
G01X-49Y1D02*
Y235999D01*
X363249D01*
Y1D01*
X-49D01*
G37*
%LPC*%
G75*
G36*
G01X65738Y196170D02*
G02X56862I-4438J0D01*
G01Y204830D01*
G02X65738I4438J0D01*
G01Y196170D01*
G37*
G36*
G01X40542D02*
G02X31664I-4439J-1D01*
G01Y204830D01*
G02X40542I4439J1D01*
G01Y196170D01*
G37*
G36*
G01X44372Y177558D02*
G02Y186434I0J4438D01*
G01X53032D01*
G02Y177558I0J-4438D01*
G01X44372D01*
G37*
G36*
G01X246402Y201398D02*
Y198415D01*
G02X244598I-902J-1444D01*
G01Y201398D01*
X237798D01*
Y203498D01*
X234598D01*
Y210602D01*
X248598D01*
Y216798D01*
X245998D01*
Y222802D01*
X253002D01*
Y216798D01*
X250402D01*
Y208798D01*
X236402D01*
Y205302D01*
X237798D01*
Y207402D01*
X244802D01*
Y205302D01*
X246798D01*
Y207402D01*
X253802D01*
Y201398D01*
X246402D01*
G37*
G36*
G01X256902Y144302D02*
Y138298D01*
X249898D01*
Y140398D01*
X247698D01*
Y155556D01*
G02X249247Y158574I901J1444D01*
G03X249798Y158944I151J370D01*
G01Y160002D01*
X256802D01*
Y153998D01*
X249502D01*
Y144302D01*
X256902D01*
G37*
G36*
G01X263302Y135246D02*
X244644D01*
G02Y137048I-1444J901D01*
G01X261498D01*
Y138298D01*
X258898D01*
Y144302D01*
X265902D01*
Y138298D01*
X263302D01*
Y135246D01*
G37*
G36*
G01X239302Y102102D02*
Y96098D01*
X232298D01*
Y98198D01*
X228744D01*
G02Y100002I-1444J902D01*
G01X232298D01*
Y102102D01*
X239302D01*
G37*
G36*
G01X115102Y35398D02*
Y33298D01*
X108098D01*
Y39302D01*
X115102D01*
Y37202D01*
X164956D01*
G02Y35398I1444J-902D01*
G01X115102D01*
G37*
G36*
G01X284852Y8546D02*
X164616D01*
G02Y10348I-1444J901D01*
G01X283048D01*
Y18298D01*
X281648D01*
Y22902D01*
X286252D01*
Y18298D01*
X284852D01*
Y8546D01*
G37*
G36*
G01X293752Y18298D02*
X289148D01*
Y22902D01*
X290548D01*
Y23398D01*
X272902D01*
Y21298D01*
X265898D01*
Y27302D01*
X272902D01*
Y25202D01*
X285398D01*
Y31398D01*
X258143D01*
G02Y33202I-1444J902D01*
G01X288602D01*
Y31602D01*
X290002D01*
Y25202D01*
X292352D01*
Y22902D01*
X293752D01*
Y18298D01*
G37*
G36*
G01X286652Y35998D02*
X282048D01*
Y40602D01*
X283448D01*
Y50498D01*
X260572D01*
Y50156D01*
X260706Y50110D01*
G02X261248Y49802I-556J-1609D01*
G01X266202D01*
Y43798D01*
X261598D01*
Y47066D01*
G03X261267Y47217I-200J0D01*
G02X261052Y47057I-1121J1281D01*
G01Y41102D01*
X262452D01*
Y36498D01*
X257848D01*
Y41102D01*
X259248D01*
Y47057D01*
G02X259044Y49795I902J1444D01*
G03X258784Y50498I-260J303D01*
G01X251545D01*
G02Y52302I-1444J902D01*
G01X285252D01*
Y40602D01*
X286036D01*
G03X286429Y41077I0J400D01*
G02X287114Y42788I1671J324D01*
G01X287198Y42847D01*
Y43298D01*
X285798D01*
Y49302D01*
X290402D01*
Y43298D01*
X289002D01*
Y42847D01*
X289086Y42788D01*
G02X289771Y41077I-986J-1387D01*
G03X290164Y40602I393J-75D01*
G01X294152D01*
Y35998D01*
X289548D01*
Y39578D01*
G03X288949Y39925I-400J0D01*
G02X287251I-849J1475D01*
G03X286652Y39578I-199J-347D01*
G01Y35998D01*
G37*
G36*
G01X84952Y58348D02*
X75448D01*
Y58598D01*
X70648D01*
Y108902D01*
X74498D01*
Y111002D01*
X77098D01*
Y112602D01*
X80898D01*
Y121098D01*
X74098D01*
Y127102D01*
X80898D01*
Y128702D01*
X95698D01*
Y173902D01*
X97698D01*
Y176002D01*
X104702D01*
Y169998D01*
X97502D01*
Y155602D01*
X99098D01*
Y157702D01*
X106498D01*
Y170102D01*
X106698D01*
Y176002D01*
X113702D01*
Y173902D01*
X115302D01*
Y170102D01*
X122098D01*
Y171998D01*
X120498D01*
Y177382D01*
X108444D01*
G02Y179184I-1444J901D01*
G01X148056D01*
G02X150944I1444J-901D01*
G01X162402D01*
Y175602D01*
X165002D01*
Y173502D01*
X176198D01*
Y175202D01*
X195598D01*
Y184698D01*
X194202D01*
Y182598D01*
X187198D01*
Y188602D01*
X194202D01*
Y188452D01*
X248256D01*
G02X250347Y189124I1443J-902D01*
G03X250898Y189494I151J370D01*
G01Y189802D01*
X257698D01*
Y191772D01*
X285432D01*
Y190046D01*
X285567Y190000D01*
G02X282313Y189280I-1036J-3030D01*
G03X282036Y189968I-277J288D01*
G01X266902D01*
Y187702D01*
X270102D01*
Y182872D01*
X291454D01*
X291500Y183007D01*
G02Y180933I3030J-1037D01*
G01X291454Y181068D01*
X270102D01*
Y164198D01*
X267402D01*
Y156098D01*
X265802D01*
Y153998D01*
X258798D01*
Y160002D01*
X265598D01*
Y164198D01*
X219248D01*
Y181902D01*
X220848D01*
Y184548D01*
X216994D01*
G02X214904Y183875I-1444J902D01*
G03X214352Y183505I-152J-370D01*
G01Y181902D01*
X218502D01*
Y163602D01*
X224902D01*
Y160002D01*
X231702D01*
Y153998D01*
X224902D01*
Y143402D01*
X231902D01*
Y141302D01*
X233502D01*
Y107046D01*
X191062D01*
G03X190727Y106428I0J-400D01*
G02X190874Y104853I-1427J-928D01*
G03X191244Y104302I370J-151D01*
G01X191402D01*
Y82902D01*
X232898D01*
Y85002D01*
X239902D01*
Y78998D01*
X232898D01*
Y81098D01*
X191249D01*
G02X190500Y80698I-749J501D01*
G01X105948D01*
Y82598D01*
X99148D01*
Y84698D01*
X97502D01*
Y80700D01*
X89152D01*
Y61198D01*
X84952D01*
Y58348D01*
G37*
G36*
G01X293602Y53898D02*
X265848D01*
Y55498D01*
X264448D01*
Y58178D01*
G03X263849Y58525I-400J0D01*
G02X262151I-849J1475D01*
G03X261552Y58178I-199J-347D01*
G01Y55498D01*
X256948D01*
Y60102D01*
X258348D01*
Y64356D01*
G02X260099Y67275I902J1444D01*
G03X260698Y67622I199J347D01*
G01Y68598D01*
X250902D01*
Y58598D01*
X100952D01*
Y58348D01*
X91448D01*
Y63798D01*
X89848D01*
Y78552D01*
X248698D01*
Y78998D01*
X241898D01*
Y85002D01*
X248698D01*
Y96098D01*
X241298D01*
Y102102D01*
X248302D01*
Y100002D01*
X250502D01*
Y95902D01*
X295898D01*
Y99698D01*
X289098D01*
Y105702D01*
X291698D01*
Y107098D01*
X267652D01*
Y101902D01*
X269052D01*
Y97298D01*
X264448D01*
Y98478D01*
G03X263849Y98825I-400J0D01*
G02X262151I-849J1475D01*
G03X261552Y98478I-199J-347D01*
G01Y97298D01*
X256948D01*
Y101902D01*
X258348D01*
Y131546D01*
X237744D01*
G02Y133348I-1444J901D01*
G01X260152D01*
Y101902D01*
X261552D01*
Y101735D01*
G03X261883Y101584I200J0D01*
G02X262098Y101744I1121J-1281D01*
G01Y104598D01*
X260698D01*
Y110602D01*
X265302D01*
Y104598D01*
X263902D01*
Y101744D01*
G02X264117Y101584I-906J-1441D01*
G03X264448Y101735I131J151D01*
G01Y101902D01*
X265848D01*
Y108902D01*
X293502D01*
Y105702D01*
X296102D01*
Y103902D01*
X317055D01*
X317097Y104046D01*
G02X323545Y105446I3603J-1046D01*
G03X324248Y105707I303J261D01*
G01Y112948D01*
X299128D01*
Y223298D01*
X228302D01*
Y217198D01*
X221002D01*
Y216445D01*
G02X221675Y214354I-901J-1444D01*
G03X222045Y213802I370J-152D01*
G01X239598D01*
Y216798D01*
X236998D01*
Y222802D01*
X244002D01*
Y216798D01*
X241402D01*
Y212000D01*
X192402D01*
Y206802D01*
X199802D01*
Y204702D01*
X212698D01*
Y206802D01*
X219702D01*
Y200798D01*
X212698D01*
Y202898D01*
X199802D01*
Y200798D01*
X192798D01*
Y202898D01*
X190802D01*
Y200798D01*
X183798D01*
Y202898D01*
X150944D01*
G02Y204702I-1444J902D01*
G01X183798D01*
Y206802D01*
X190600D01*
Y217498D01*
X183598D01*
Y223298D01*
X104102D01*
Y205502D01*
X106702D01*
Y199498D01*
X99698D01*
Y205502D01*
X102298D01*
Y225102D01*
X300932D01*
Y222781D01*
G03X301695Y222615I400J0D01*
G02X313812Y218771I5827J-2652D01*
G03X314453Y218383I393J-74D01*
G02X311655Y214177I5078J-6412D01*
G03X311049Y214619I-385J108D01*
G02X301695Y217309I-3527J5343D01*
G03X300932Y217143I-363J-166D01*
G01Y161797D01*
G03X301695Y161631I400J0D01*
G02X311049Y164321I5827J-2653D01*
G03X311655Y164763I221J334D01*
G02X314453Y160557I7876J2206D01*
G03X313812Y160169I-248J-314D01*
G02X301695Y156325I-6290J-1192D01*
G03X300932Y156159I-363J-166D01*
G01Y114752D01*
X326052D01*
Y98502D01*
X328155D01*
X328197Y98646D01*
G02Y96554I3603J-1046D01*
G01X328155Y96698D01*
X327652D01*
Y88585D01*
G03X328413Y88413I400J0D01*
G02Y85187I3387J-1613D01*
G03X327652Y85015I-361J-172D01*
G01Y77785D01*
G03X328413Y77613I400J0D01*
G02Y74387I3387J-1613D01*
G03X327652Y74215I-361J-172D01*
G01Y66985D01*
G03X328413Y66813I400J0D01*
G02X328051Y65056I3387J-1614D01*
G01X328043Y65248D01*
X302998D01*
Y70698D01*
X295744D01*
G03X295374Y70147I0J-400D01*
G02X292356Y68598I-1574J-648D01*
G01X265302D01*
Y62798D01*
X263902D01*
Y61444D01*
G02X264680Y60270I-903J-1443D01*
G01X264707Y60102D01*
X269052D01*
Y55702D01*
X291798D01*
Y57598D01*
X289198D01*
Y63602D01*
X296202D01*
Y57598D01*
X293602D01*
Y53898D01*
G37*
G36*
G01X244352Y20498D02*
X219898D01*
Y24298D01*
X217298D01*
Y30302D01*
X224302D01*
Y24298D01*
X221702D01*
Y22302D01*
X233648D01*
Y26702D01*
X235048D01*
Y33298D01*
X215700D01*
Y42698D01*
X208398D01*
Y48702D01*
X215700D01*
Y50098D01*
X141144D01*
G02Y51902I-1444J902D01*
G01X145048D01*
G03X145418Y52453I0J400D01*
G02X148436Y54002I1574J648D01*
G01X236352D01*
Y45202D01*
X237752D01*
Y40802D01*
X240648D01*
Y45202D01*
X245048D01*
Y53698D01*
X241502D01*
Y47898D01*
X236898D01*
Y53902D01*
X238298D01*
Y55298D01*
X60298D01*
Y87338D01*
X44645D01*
X44603Y87194D01*
G02X43090Y85124I-3603J1046D01*
G03X43312Y84392I222J-332D01*
G01X54102D01*
Y42302D01*
X204056D01*
G02Y40498I1444J-902D01*
G01X52298D01*
Y82588D01*
X35048D01*
Y103538D01*
X33545D01*
X33503Y103394D01*
G02Y105486I-3603J1046D01*
G01X33545Y105342D01*
X36852D01*
Y100825D01*
G03X37613Y100653I400J0D01*
G02Y97427I3387J-1613D01*
G03X36852Y97255I-361J-172D01*
G01Y90025D01*
G03X37613Y89853I400J0D01*
G02X44603Y89286I3387J-1613D01*
G01X44645Y89142D01*
X62102D01*
Y57102D01*
X240102D01*
Y55502D01*
X246852D01*
Y39344D01*
G02X244506Y36998I-902J-1444D01*
G01X240602D01*
Y35402D01*
X242002D01*
Y29398D01*
X237398D01*
Y35402D01*
X238798D01*
Y38998D01*
X219998D01*
Y42698D01*
X217502D01*
Y35102D01*
X236852D01*
Y26702D01*
X238252D01*
Y22302D01*
X241148D01*
Y26702D01*
X245752D01*
Y22098D01*
X244352D01*
Y20498D01*
G37*
G36*
G01X96502Y14244D02*
G02X94156Y11898I-902J-1444D01*
G01X72898D01*
Y13498D01*
X70298D01*
Y19502D01*
X73398D01*
Y32998D01*
X70798D01*
Y39002D01*
X77802D01*
Y32998D01*
X75202D01*
Y21102D01*
X83702D01*
Y19502D01*
X86302D01*
Y13702D01*
X94156D01*
G02X94698Y14244I1444J-902D01*
G01Y16602D01*
X98898D01*
Y18702D01*
X101698D01*
Y33298D01*
X99098D01*
Y34150D01*
G03X98509Y34502I-400J0D01*
G02X96256Y35098I-809J1498D01*
G01X86802D01*
Y32998D01*
X79798D01*
Y39002D01*
X86802D01*
Y36902D01*
X96256D01*
G02X98509Y37498I1444J-902D01*
G03X99098Y37850I189J352D01*
G01Y39302D01*
X106102D01*
Y33298D01*
X103502D01*
Y20302D01*
X112302D01*
Y18702D01*
X114902D01*
Y12698D01*
X107898D01*
Y18498D01*
X105902D01*
Y12698D01*
X98898D01*
Y14798D01*
X96502D01*
Y14244D01*
G37*
G54D41*
X284530Y176970D03*
Y196970D03*
Y206970D03*
X294530Y191970D03*
Y201970D03*
X338821Y163387D03*
Y173387D03*
Y205553D03*
Y215553D03*
G54D37*
X168400Y15200D03*
X198400D03*
X188400D03*
X178400D03*
G54D34*
X41000Y77440D03*
X29900Y82840D03*
X41000Y109840D03*
X29900Y115240D03*
Y93640D03*
G54D33*
X35600Y49540D03*
Y148540D03*
X326100Y31900D03*
Y130900D03*
G54D36*
X94200Y202500D03*
X181700Y185600D03*
X211800Y27300D03*
X225200Y203800D03*
X260400Y24300D03*
X283700Y60600D03*
X283600Y102700D03*
G54D40*
X294530Y171970D03*
G54D39*
X267650Y38800D03*
G54D35*
X41000Y120640D03*
X320700Y59800D03*
G54D38*
X158400Y15200D03*
%LPD*%
G75*
G36*
G01X77302Y13702D02*
Y19298D01*
X79298D01*
Y13702D01*
X77302D01*
G37*
G36*
G01X72452Y60402D02*
Y107098D01*
X74498D01*
Y104998D01*
X81502D01*
Y110798D01*
X82702D01*
Y121098D01*
X90102D01*
Y123198D01*
X95698D01*
Y87069D01*
G02X95032Y86771I-400J0D01*
G03X93253Y87074I-1132J-1271D01*
G02X92702Y87444I-151J370D01*
G01Y88502D01*
X85698D01*
Y82498D01*
X87348D01*
Y69244D01*
G02X86797Y68874I-400J0D01*
G03X84897Y68452I-647J-1574D01*
G01X75652D01*
Y84598D01*
X76698D01*
Y82498D01*
X83702D01*
Y88502D01*
X76902D01*
Y96298D01*
X92102D01*
Y108902D01*
X90502D01*
Y111002D01*
X83498D01*
Y104998D01*
X90298D01*
Y98102D01*
X75098D01*
Y86402D01*
X73848D01*
Y63798D01*
X75448D01*
Y60402D01*
X72452D01*
G37*
G36*
G01X100952Y68202D02*
Y68452D01*
X91652D01*
Y73606D01*
G02X92203Y73976I400J0D01*
G03X94294Y74648I648J1574D01*
G01X112298D01*
Y68202D01*
X100952D01*
G37*
G36*
G01X84952Y63002D02*
Y65355D01*
G02X85504Y65725I400J0D01*
G03X86797Y65726I645J1575D01*
G02X87348Y65356I151J-370D01*
G01Y63002D01*
X84952D01*
G37*
G36*
G01X100952D02*
Y66398D01*
X112298D01*
Y65098D01*
X113898D01*
Y63002D01*
X100952D01*
G37*
G36*
G01Y60402D02*
Y61198D01*
X233502D01*
Y62998D01*
X240302D01*
Y69002D01*
X233502D01*
Y70698D01*
X249098D01*
Y69002D01*
X242298D01*
Y62998D01*
X249098D01*
Y60402D01*
X100952D01*
G37*
G36*
G01X115152Y86502D02*
Y88602D01*
X107752D01*
Y106202D01*
X106502D01*
Y112002D01*
X99102D01*
Y121398D01*
X105902D01*
Y127402D01*
X99102D01*
Y128702D01*
X97502D01*
Y144998D01*
X114898D01*
Y142002D01*
X108098D01*
Y136202D01*
X106102D01*
Y142002D01*
X99098D01*
Y135998D01*
X101698D01*
Y134398D01*
X110498D01*
Y127402D01*
X107898D01*
Y121398D01*
X114902D01*
Y122456D01*
G02X115453Y122826I400J0D01*
G03Y125974I647J1574D01*
G02X114902Y126344I-151J370D01*
G01Y127402D01*
X112302D01*
Y135998D01*
X115102D01*
Y138098D01*
X118498D01*
Y109902D01*
X115502D01*
Y112002D01*
X108498D01*
Y105998D01*
X115502D01*
Y108098D01*
X120302D01*
Y118232D01*
X123433D01*
X123481Y118101D01*
G03Y120167I2819J1033D01*
G01X123433Y120036D01*
X120302D01*
Y139902D01*
X116702D01*
Y146802D01*
X99302D01*
Y151698D01*
X106498D01*
Y148198D01*
X121698D01*
Y124346D01*
X140628D01*
G02X140992Y123781I0J-400D01*
G03X141188Y122623I958J-433D01*
G02Y122071I-290J-276D01*
G03X141950Y120296I762J-724D01*
G01X146756D01*
G03X147081Y120347I2J1051D01*
G02X147604Y119967I123J-380D01*
G01Y111244D01*
X121698D01*
Y86502D01*
X115152D01*
G37*
G36*
G01X97502D02*
Y108098D01*
X99498D01*
Y105998D01*
X102098D01*
Y104398D01*
X105948D01*
Y88602D01*
X99148D01*
Y86502D01*
X97502D01*
G37*
G36*
G01X90102Y125002D02*
Y126898D01*
X97298D01*
Y125002D01*
X90102D01*
G37*
G36*
G01X134102Y130248D02*
Y155602D01*
X115102D01*
Y157702D01*
X108302D01*
Y168298D01*
X135502D01*
Y169898D01*
X138102D01*
Y175902D01*
X131098D01*
Y170102D01*
X129102D01*
Y175902D01*
X122302D01*
Y177382D01*
X148056D01*
G03X150944I1444J901D01*
G01X160598D01*
Y175602D01*
X157998D01*
Y169598D01*
X165002D01*
Y171698D01*
X176198D01*
Y154246D01*
X186798D01*
Y149941D01*
G02X186247Y149571I-400J0D01*
G03X184034Y147329I-647J-1574D01*
G02X183730Y146777I-368J-157D01*
G03X182556Y145998I270J-1680D01*
G01X173725D01*
G02X173360Y146562I0J400D01*
G03X173452Y146991I-960J430D01*
G01Y151797D01*
G03X171894Y152719I-1052J0D01*
G02X171302Y153069I-192J350D01*
G01Y158097D01*
G03X168826Y158894I-902J1444D01*
G02X168456Y158342I-370J-152D01*
G01X161744D01*
G03X160298Y155739I-1444J-901D01*
G02X160698Y155339I0J-400D01*
G03X161498Y153897I1702J1D01*
G01Y153069D01*
G02X160906Y152719I-400J0D01*
G03X159676Y152559I-505J-922D01*
G02X159124I-276J290D01*
G03X157676I-724J-762D01*
G02X157124I-276J290D01*
G03X155676I-724J-762D01*
G02X155124I-276J290D01*
G03X153676I-724J-762D01*
G02X153124I-276J290D01*
G03X152359Y152848I-725J-762D01*
G02X151974Y153400I-15J400D01*
G03X149414Y152659I-1574J647D01*
G01X149498Y152600D01*
Y152341D01*
X149475Y152296D01*
G03X149348Y151797I925J-501D01*
G01Y146991D01*
G03X150906Y146069I1052J0D01*
G02X151498Y145719I192J-350D01*
G01Y143391D01*
G03X150856Y142664I902J-1444D01*
G02X150210Y142550I-363J168D01*
G03X148359Y142921I-1204J-1203D01*
G02X147807Y143306I-152J370D01*
G03X146756Y144398I-1051J40D01*
G01X141950D01*
G03X141451Y144272I0J-1051D01*
G01X141406Y144248D01*
X141102D01*
Y171698D01*
X148998D01*
Y169598D01*
X156002D01*
Y175602D01*
X148998D01*
Y173502D01*
X139298D01*
Y157800D01*
G02X138651Y157485I-400J0D01*
G03X136698Y154703I-1051J-1338D01*
G01Y134446D01*
X140678D01*
G02X141028Y133853I0J-400D01*
G03X141188Y132623I922J-505D01*
G02Y132071I-290J-276D01*
G03X141028Y130841I762J-725D01*
G02X140678Y130248I-350J-193D01*
G01X134102D01*
G37*
G36*
G01X123502Y126148D02*
Y136998D01*
X129302D01*
Y143002D01*
X123502D01*
Y150002D01*
X108302D01*
Y151698D01*
X115102D01*
Y153798D01*
X132298D01*
Y128248D01*
X127744D01*
G03X124726Y126700I-1444J-901D01*
G02X124356Y126148I-370J-152D01*
G01X123502D01*
G37*
G36*
G01X115152Y82502D02*
Y84698D01*
X123502D01*
Y109442D01*
X132798D01*
Y91044D01*
G03X132126Y88953I902J-1443D01*
G02X131756Y88402I-370J-151D01*
G01X125998D01*
Y82502D01*
X115152D01*
G37*
G36*
G01X120902Y63002D02*
Y69002D01*
X114102D01*
Y72548D01*
X225856D01*
G03X228744I1444J902D01*
G01X231698D01*
Y63002D01*
X159202D01*
Y65298D01*
X160802D01*
Y69498D01*
X184656D01*
G03Y71302I1444J902D01*
G01X140898D01*
Y69744D01*
G03X140356Y69202I902J-1444D01*
G01X129698D01*
Y69002D01*
X122898D01*
Y63002D01*
X120902D01*
G37*
G36*
G01X129902D02*
Y65098D01*
X131502D01*
Y67398D01*
X131756D01*
G02X132126Y66847I0J-400D01*
G03X135144Y65298I1574J-648D01*
G01X143198D01*
Y63002D01*
X129902D01*
G37*
G36*
G01X142002Y86302D02*
Y88402D01*
X135644D01*
G02X135274Y88953I0J400D01*
G03X134602Y91044I-1574J648D01*
G01Y107842D01*
X151302D01*
Y111625D01*
G02X151894Y111975I400J0D01*
G03X152906I506J922D01*
G02X153498Y111625I192J-350D01*
G01Y106444D01*
X146090D01*
Y86302D01*
X142002D01*
G37*
G36*
G01X140347Y140921D02*
G03X139053I-647J-1574D01*
G02X138502Y141291I-151J370D01*
G01Y154703D01*
G03X138651Y154809I-911J1438D01*
G02X139298Y154494I247J-315D01*
G01Y142446D01*
X140678D01*
G02X141028Y141853I0J-400D01*
G03X140899Y141306I922J-506D01*
G02X140347Y140921I-400J-15D01*
G37*
G36*
G01X150202Y63002D02*
Y69498D01*
X152198D01*
Y63002D01*
X150202D01*
G37*
G36*
G01X142002Y82502D02*
Y84498D01*
X146577D01*
X146617Y84480D01*
G03X146992Y84398I376J820D01*
G01X173798D01*
Y82502D01*
X142002D01*
G37*
G36*
G01X154114Y96170D02*
G02X153806Y96826I0J400D01*
G03X154600Y99029I-2661J2204D01*
G01Y100997D01*
G03X153010Y103905I-3454J0D01*
G02X153226Y104642I216J337D01*
G01X156426D01*
G02X156695Y103946I0J-400D01*
G03X155564Y101390I2323J-2556D01*
G01Y99422D01*
G03X156695Y96866I3454J0D01*
G02X156426Y96170I-269J-296D01*
G01X154114D01*
G37*
G36*
G01X161612D02*
G02X161343Y96866I0J400D01*
G03X162474Y99422I-2323J2556D01*
G01Y101390D01*
G03X160060Y104684I-3454J0D01*
G01X159920Y104728D01*
Y106444D01*
X155302D01*
Y111625D01*
G02X155894Y111975I400J0D01*
G03X157124Y112135I505J922D01*
G02X157676I276J-290D01*
G03X158906Y111975I725J762D01*
G02X159498Y111625I192J-350D01*
G01Y107046D01*
X187538D01*
G02X187873Y106428I0J-400D01*
G03X187726Y104853I1427J-928D01*
G02X187356Y104302I-370J-151D01*
G01X180498D01*
Y102702D01*
X173698D01*
Y96698D01*
X181098D01*
Y96170D01*
X161612D01*
G37*
G36*
G01X147894Y86202D02*
Y96436D01*
G02X148589Y96705I400J-1D01*
G03X150104Y95735I2556J2324D01*
G01X150244Y95691D01*
Y94368D01*
X181098D01*
Y88302D01*
X173798D01*
Y86202D01*
X147894D01*
G37*
G36*
G01X163302Y110448D02*
Y111625D01*
G02X163894Y111975I400J0D01*
G03X165124Y112135I505J922D01*
G02X165676I276J-290D01*
G03X166906Y111975I725J762D01*
G02X167498Y111625I192J-350D01*
G01Y110448D01*
X163302D01*
G37*
G36*
G01X150536Y132248D02*
G03X148373Y132890I-1444J-901D01*
G02X147805Y133278I-169J363D01*
G03X147518Y134071I-1049J69D01*
G02Y134623I290J276D01*
G03X147678Y135853I-762J725D01*
G02X148028Y136446I350J193D01*
G01X161728D01*
G03Y138248I1444J901D01*
G01X148028D01*
G02X147678Y138841I0J400D01*
G03X147807Y139388I-922J506D01*
G02X148359Y139773I400J15D01*
G03X150550Y140630I647J1574D01*
G02X151196Y140744I363J-168D01*
G03X154102Y141945I1204J1203D01*
G02X154502Y142345I400J0D01*
G03X155944Y143146I-2J1702D01*
G01X165498D01*
Y141291D01*
G03X167302I902J-1444D01*
G01Y145719D01*
G02X167894Y146069I400J0D01*
G03X169124Y146229I505J922D01*
G02X169676I276J-290D01*
G03X171124I724J762D01*
G02X171676I276J-290D01*
G03X172829Y146031I724J762D01*
G02X173392Y145666I163J-365D01*
G01Y136446D01*
X174772D01*
G02X175122Y135853I0J-400D01*
G03X175282Y134623I922J-505D01*
G02Y134071I-290J-276D01*
G03X175122Y132841I762J-725D01*
G02X174772Y132248I-350J-193D01*
G01X150536D01*
G37*
G36*
G01X155676Y118465D02*
G02X155124I-276J290D01*
G03X154359Y118754I-725J-762D01*
G02X153974Y119306I-15J400D01*
G03X151421Y121345I-1574J647D01*
G02X150791Y121650I-230J327D01*
G03X148372Y123095I-1699J-97D01*
G02X147804Y123427I-169J363D01*
G03X147678Y123853I-1048J-78D01*
G02X148028Y124446I350J193D01*
G01X171109D01*
G03Y126248I1444J901D01*
G01X148028D01*
G02X147678Y126841I0J400D01*
G03X147518Y128071I-922J505D01*
G02Y128623I290J276D01*
G03X147805Y129416I-762J724D01*
G02X148373Y129804I399J25D01*
G03X150536Y130446I719J1543D01*
G01X168656D01*
G02X169026Y129894I0J-400D01*
G03X172044Y128346I1574J-647D01*
G01X173602D01*
Y128446D01*
X174772D01*
G02X175122Y127853I0J-400D01*
G03X175282Y126623I922J-505D01*
G02Y126071I-290J-276D01*
G03Y124623I762J-724D01*
G02Y124071I-290J-276D01*
G03X175122Y122841I762J-725D01*
G02X174772Y122248I-350J-193D01*
G01X169498D01*
Y118975D01*
G02X168906Y118625I-400J0D01*
G03X167676Y118465I-505J-922D01*
G02X167124I-276J290D01*
G03X165676I-724J-762D01*
G02X165124I-276J290D01*
G03X163676I-724J-762D01*
G02X163124I-276J290D01*
G03X161676I-724J-762D01*
G02X161124I-276J290D01*
G03X159676I-724J-762D01*
G02X159124I-276J290D01*
G03X157676I-724J-762D01*
G02X157124I-276J290D01*
G03X155676I-724J-762D01*
G37*
G36*
G01X155944Y144948D02*
G03X154936Y145692I-1444J-901D01*
G02X154893Y146062I51J193D01*
G03X155124Y146229I-495J928D01*
G02X155676I276J-290D01*
G03X157124I724J762D01*
G02X157676I276J-290D01*
G03X159124I724J762D01*
G02X159676I276J-290D01*
G03X161124I724J762D01*
G02X161676I276J-290D01*
G03X162906Y146069I725J762D01*
G02X163498Y145719I192J-350D01*
G01Y144948D01*
X155944D01*
G37*
G36*
G01X163302Y153069D02*
Y153897D01*
G03X163974Y155988I-902J1443D01*
G02X164344Y156540I370J152D01*
G01X167498D01*
Y153069D01*
G02X166906Y152719I-400J0D01*
G03X165676Y152559I-505J-922D01*
G02X165124I-276J290D01*
G03X163894Y152719I-725J-762D01*
G02X163302Y153069I-192J350D01*
G37*
G36*
G01X228302Y108848D02*
Y115598D01*
X230902D01*
Y121602D01*
X223898D01*
Y115598D01*
X226498D01*
Y110448D01*
X205402D01*
Y115998D01*
X208002D01*
Y122002D01*
X200998D01*
Y115998D01*
X203598D01*
Y112048D01*
X173780D01*
G02X173400Y112572I0J400D01*
G03X173452Y112897I-1000J327D01*
G01Y117703D01*
G03X173439Y117867I-1052J-1D01*
G01X173436Y117883D01*
Y118098D01*
X191998D01*
Y115998D01*
X199002D01*
Y122002D01*
X191998D01*
Y119902D01*
X190989D01*
G02X190667Y120540I-1J400D01*
G03X190202Y122997I-1367J1014D01*
G01Y135398D01*
X197402D01*
Y137498D01*
X199398D01*
Y135398D01*
X206402D01*
Y141402D01*
X199102D01*
Y146553D01*
G03X197298I-902J1444D01*
G01Y141402D01*
X190202D01*
Y150698D01*
X197002D01*
Y152798D01*
X198998D01*
Y150698D01*
X206002D01*
Y152798D01*
X210998D01*
Y117698D01*
X214898D01*
Y115598D01*
X221902D01*
Y121602D01*
X214898D01*
Y119502D01*
X212802D01*
Y154602D01*
X206002D01*
Y156702D01*
X199202D01*
Y177498D01*
X204848D01*
Y176702D01*
X203248D01*
Y162544D01*
G03X205594Y160198I902J-1444D01*
G01X215698D01*
Y153998D01*
X223098D01*
Y143402D01*
X215898D01*
Y137398D01*
X222902D01*
Y139498D01*
X224898D01*
Y137398D01*
X231698D01*
Y108848D01*
X228302D01*
G37*
G36*
G01X182902Y88302D02*
Y96698D01*
X189598D01*
Y88302D01*
X182902D01*
G37*
G36*
G01X183502Y122248D02*
Y131546D01*
X185198D01*
Y130191D01*
G03Y127303I902J-1444D01*
G01Y122248D01*
X183502D01*
G37*
G36*
G01X180772Y119902D02*
Y120283D01*
X180953Y120301D01*
G03X181349Y120422I-103J1046D01*
G01X181394Y120446D01*
X187002D01*
Y127303D01*
G03X187674Y129394I-902J1443D01*
G02X188044Y129946I370J152D01*
G01X188398D01*
Y122997D01*
G03X187933Y120540I902J-1443D01*
G02X187611Y119902I-321J-238D01*
G01X180772D01*
G37*
G36*
G01X181772Y140841D02*
G03X181612Y142071I-922J505D01*
G02Y142623I290J276D01*
G03X181850Y143672I-762J724D01*
G02X182230Y144196I380J124D01*
G01X182556D01*
G03X184647Y143523I1444J901D01*
G02X185198Y143153I151J-370D01*
G01Y141291D01*
G02X184647Y140921I-400J0D01*
G03X182556Y140248I-647J-1574D01*
G01X182122D01*
G02X181772Y140841I0J400D01*
G37*
G36*
G01X190202Y156702D02*
Y158300D01*
X188644D01*
G03X185756I-1444J-901D01*
G01X182202D01*
Y167598D01*
X184802D01*
Y169698D01*
X186798D01*
Y167598D01*
X193802D01*
Y173398D01*
X197398D01*
Y156702D01*
X190202D01*
G37*
G36*
G01X178002Y156048D02*
Y167598D01*
X180398D01*
Y156498D01*
X185756D01*
G03X185845Y156369I1444J901D01*
G02X185685Y156048I-160J-121D01*
G01X178002D01*
G37*
G36*
G01X195802Y184502D02*
Y186648D01*
X213606D01*
G02X213976Y186097I0J-400D01*
G03X213865Y185209I1574J-648D01*
G02X213469Y184752I-396J-57D01*
G01X204848D01*
Y184502D01*
X195802D01*
G37*
G36*
G01X197402Y179302D02*
Y182698D01*
X204848D01*
Y179302D01*
X197402D01*
G37*
G36*
G01X199602Y221402D02*
Y223298D01*
X212298D01*
Y221402D01*
X199602D01*
G37*
G36*
G01X192402Y213802D02*
Y217498D01*
X199602D01*
Y219598D01*
X210698D01*
Y219298D01*
X212298D01*
Y217198D01*
X219200D01*
Y216445D01*
G03X218527Y214354I901J-1444D01*
G02X218157Y213802I-370J-152D01*
G01X192402D01*
G37*
G36*
G01X221802Y40802D02*
Y42698D01*
X224402D01*
Y48702D01*
X217502D01*
Y52198D01*
X234548D01*
Y45202D01*
X233148D01*
Y40802D01*
X221802D01*
G37*
G36*
G01X221052Y166002D02*
Y174648D01*
X230352D01*
Y174898D01*
X238148D01*
Y167398D01*
X268298D01*
Y166002D01*
X221052D01*
G37*
G36*
G01X205594Y162002D02*
G03X205052Y162544I-1444J-902D01*
G01Y174648D01*
X214352D01*
Y180098D01*
X216700D01*
Y162002D01*
X205594D01*
G37*
G36*
G01X230352Y179302D02*
Y182698D01*
X246778D01*
G02X247125Y182099I0J-400D01*
G03X247449Y179996I1475J-849D01*
G02X247179Y179302I-271J-294D01*
G01X230352D01*
G37*
G36*
G01X239952Y169202D02*
Y176702D01*
X230352D01*
Y177498D01*
X248498D01*
Y171098D01*
X250098D01*
Y169202D01*
X239952D01*
G37*
G36*
G01X323407Y67052D02*
G02X323146Y67755I0J400D01*
G03X317097Y71646I-2446J2845D01*
G01X317055Y71502D01*
X313024D01*
Y74352D01*
X263902D01*
Y83798D01*
X265302D01*
Y89802D01*
X263294D01*
G02X262924Y90353I0J400D01*
G03X260698Y89428I-1574J647D01*
G01Y84122D01*
G02X260099Y83775I-400J0D01*
G03X257676Y81653I-849J-1475D01*
G02X257306Y81102I-370J-151D01*
G01X256948D01*
Y76452D01*
X250502D01*
Y94098D01*
X297702D01*
Y102098D01*
X317055D01*
X317097Y101954D01*
G03X323545Y100554I3603J1046D01*
G02X324248Y100293I303J-261D01*
G01Y94907D01*
G02X323545Y94646I-400J0D01*
G03X324303Y91154I-2845J-2446D01*
G01X324345Y91298D01*
X325848D01*
Y67052D01*
X323407D01*
G37*
G36*
G01X257102Y169202D02*
Y175002D01*
X250302D01*
Y177498D01*
X259502D01*
Y183798D01*
X266902D01*
Y185898D01*
X268298D01*
Y173944D01*
G02X267747Y173574I-400J0D01*
G03X266615Y173632I-648J-1574D01*
G02X266102Y174015I-113J383D01*
G01Y175002D01*
X259098D01*
Y169202D01*
X257102D01*
G37*
G36*
G01X249751Y179996D02*
G03X249502Y182694I-1151J1254D01*
G01Y184548D01*
X250898D01*
Y183798D01*
X257698D01*
Y179302D01*
X250021D01*
G02X249751Y179996I1J400D01*
G37*
G36*
G01X304802Y67052D02*
Y72548D01*
X311222D01*
Y69698D01*
X317055D01*
X317097Y69554D01*
G03X318254Y67755I3603J1046D01*
G02X317993Y67052I-261J-303D01*
G01X304802D01*
G37*
%LPC*%
G75*
G36*
G01X269052Y81102D02*
Y76498D01*
X264448D01*
Y81102D01*
X265848D01*
Y86002D01*
X293602D01*
Y82802D01*
X296202D01*
Y76798D01*
X289198D01*
Y82802D01*
X291798D01*
Y84198D01*
X267652D01*
Y81102D01*
X269052D01*
G37*
G54D34*
X320700Y81400D03*
G54D36*
X283700Y79800D03*
%LPD*%
G75*
G54D10*
X35600Y49540D03*
Y148540D03*
X326100Y31900D03*
Y130900D03*
G54D20*
X126300Y140000D03*
G54D11*
X41000Y77440D03*
X29900Y82840D03*
X41000Y109840D03*
Y99040D03*
Y88240D03*
X29900Y115240D03*
Y104440D03*
Y93640D03*
X320700Y70600D03*
Y81400D03*
Y92200D03*
Y103000D03*
X331800Y65200D03*
Y76000D03*
Y86800D03*
Y97600D03*
G54D30*
X307522Y158978D03*
Y219962D03*
G54D21*
X168400Y15200D03*
X198400D03*
X188400D03*
X178400D03*
G54D12*
X41000Y120640D03*
X320700Y59800D03*
G54D31*
G01X-50Y0D02*
Y236000D01*
X363250D01*
Y0D01*
X-50D01*
G54D13*
X48702Y181996D03*
G54D22*
X158400Y15200D03*
G54D32*
G01X41000Y73488D02*
Y77440D01*
G01D02*
Y81392D01*
G01X37048Y77440D02*
X41000D01*
G01D02*
X44952D01*
G01X41000Y88240D02*
X61200D01*
Y56200D01*
X239200D01*
Y54600D01*
G01X29900Y111288D02*
Y115240D01*
G01Y104440D02*
X35950D01*
Y83490D01*
X53200D01*
Y41400D01*
X205500D01*
G01X29900Y115240D02*
Y119192D01*
G01X25948Y115240D02*
X29900D01*
G01D02*
X33852D01*
G01X90000Y191032D02*
X36103D01*
G01D02*
Y200500D01*
G01D02*
Y209470D01*
G01X31464Y200500D02*
X36103D01*
G01D02*
X40742D01*
G01X74300Y36000D02*
Y20200D01*
X82800D01*
Y16500D01*
G01X95600Y12800D02*
X73800D01*
Y16500D01*
G01X76000Y85500D02*
X74750D01*
Y64700D01*
X80200D01*
G01Y62100D02*
X88250D01*
Y81601D01*
X96600D01*
Y85600D01*
G01X80200Y59500D02*
X71550D01*
Y108000D01*
X78000D01*
G01X80200Y67300D02*
X86150D01*
G01X87000Y108000D02*
X91200D01*
Y97200D01*
X76000D01*
Y85500D01*
G01X80200D02*
X76000D01*
G01X78000Y108000D02*
Y111700D01*
X81800D01*
Y124100D01*
G01D02*
Y127800D01*
X96600D01*
G01X77600Y124100D02*
X81800D01*
G01X102600Y36300D02*
Y19400D01*
X111400D01*
Y15700D01*
G01X102400D02*
X95600D01*
Y12800D01*
G01X83300Y36000D02*
X97700D01*
G01X111600Y36300D02*
X166400D01*
G01X113200Y67300D02*
X96200D01*
G01Y59500D02*
X250000D01*
Y66000D01*
G01X133700Y81600D02*
X106850D01*
Y105300D01*
X103000D01*
Y109000D01*
G01X96200Y64700D02*
X90750D01*
Y77650D01*
X249600D01*
Y82000D01*
G01X232600Y66000D02*
Y62100D01*
X96200D01*
G01X92850Y75550D02*
X263000D01*
Y86800D01*
G01X102650Y85600D02*
X96600D01*
G01D02*
Y124100D01*
X86600D01*
G01X103000Y109000D02*
X98200D01*
Y124400D01*
G01X89200Y85500D02*
X93900D01*
G01X111650Y85600D02*
X122600D01*
Y110343D01*
X148506D01*
Y119453D01*
X149092D01*
Y121553D01*
G01X101200Y173000D02*
X96600D01*
Y127800D01*
G01X98200Y124400D02*
Y127800D01*
X96600D01*
G01X102400Y124400D02*
X98200D01*
G01X111600Y139000D02*
X115800D01*
G01X102600D02*
Y135300D01*
X111400D01*
Y124400D01*
G01X116100D02*
X111400D01*
G01X111600Y154700D02*
X133200D01*
Y129347D01*
X144353D01*
G01X115800Y139000D02*
Y145900D01*
X98400D01*
Y154700D01*
X102600D01*
G01X114400Y169200D02*
X107400D01*
Y149100D01*
X122600D01*
Y125247D01*
X140200D01*
Y125347D01*
X144353D01*
G01X110200Y173000D02*
X114400D01*
Y169200D01*
G01X103200Y202500D02*
Y224200D01*
X300030D01*
Y113850D01*
X325150D01*
Y92200D01*
X320700D01*
G01X107000Y178283D02*
X121400D01*
G01X94200Y202500D02*
X90000D01*
G01X138600Y185601D02*
Y191032D01*
X90000D01*
G01Y202500D02*
Y191032D01*
G01X94200Y199298D02*
Y202500D01*
G01D02*
Y205702D01*
G01Y202500D02*
X97902D01*
G01X235950Y24400D02*
Y34200D01*
X216601D01*
Y51000D01*
X139700D01*
G01X117400Y66000D02*
X113200D01*
Y67300D01*
G01X227300Y73450D02*
X113200D01*
Y67300D01*
G01X133700Y81600D02*
Y85400D01*
G01X190500Y82000D02*
Y81600D01*
X133700D01*
G01X146700Y66200D02*
X133700D01*
G01X126400Y66000D02*
X130600D01*
Y68300D01*
X141800D01*
G01D02*
Y70400D01*
X159900D01*
G01X150400Y115300D02*
Y108743D01*
X133700D01*
Y89600D01*
G01X129500Y85400D02*
X133700D01*
G01Y89600D02*
Y85400D01*
G01X112000Y109000D02*
X119400D01*
Y119134D01*
G01X138500Y85400D02*
X146992D01*
G01X119400Y119134D02*
Y139000D01*
X115800D01*
G01X126300Y119134D02*
X119400D01*
G01X144353Y127347D02*
X126300D01*
G01X144353Y143347D02*
X140200D01*
Y172600D01*
X152500D01*
G01X144353Y139347D02*
X139700D01*
G01X144353Y135347D02*
X137600D01*
Y156147D01*
G01X125600Y172900D02*
X121400D01*
Y178283D01*
G01X114400Y169200D02*
X134600D01*
Y172900D01*
G01X121400Y178283D02*
X149500D01*
G01X177500Y185601D02*
X138600D01*
G01X283950Y20600D02*
Y9447D01*
X163172D01*
G01X235450Y42900D02*
Y53100D01*
X146992D01*
G01X159900Y70400D02*
X186100D01*
G01X155700Y66200D02*
X159900D01*
Y70400D01*
G01X151145Y100013D02*
Y95269D01*
X182000D01*
G01X146992Y85400D02*
Y85300D01*
X177300D01*
G01X154400Y105543D02*
X146992D01*
Y85400D01*
G01X154400Y115300D02*
Y105543D01*
G01D02*
X159019D01*
Y100406D01*
G01X228400Y140400D02*
X232600D01*
Y107947D01*
X160400D01*
Y115300D01*
G01X227400Y118600D02*
Y109547D01*
X162400D01*
Y115300D01*
G01X168400D02*
Y111147D01*
X204500D01*
Y119000D01*
G01X152400Y149394D02*
Y141947D01*
G01X178447Y129347D02*
X172700D01*
Y129247D01*
X170600D01*
G01X178447Y131347D02*
X149092D01*
G01X166400Y149394D02*
Y139847D01*
G01X170400Y115300D02*
Y121347D01*
X178447D01*
G01X172553Y125347D02*
X144353D01*
G01X152400Y115300D02*
Y119953D01*
G01X144353Y141347D02*
X149006D01*
G01X144353Y137347D02*
X163172D01*
G01X150400Y149394D02*
Y154047D01*
G01X164400Y149394D02*
Y144047D01*
X154500D01*
G01X168400Y149394D02*
Y157441D01*
X160300D01*
G01X177100Y172600D02*
X161500D01*
G01X149500Y178283D02*
X161500D01*
Y172600D01*
G01X162400Y149394D02*
Y155341D01*
G01X170400Y149394D02*
Y159541D01*
G01X149500Y203800D02*
X187300D01*
G01X198400Y15200D02*
Y19800D01*
G01D02*
X207600D01*
G01X198400Y11545D02*
Y15200D01*
G01X194745D02*
X198400D01*
G01D02*
X202055D01*
G01X236400Y82000D02*
X190500D01*
G01X189300Y103400D02*
X190500D01*
Y82000D01*
G01X177200Y99700D02*
Y101800D01*
X181400D01*
Y103400D01*
X189300D01*
G01D02*
Y105500D01*
G01X182000Y95269D02*
Y85300D01*
X186300D01*
G01X186200Y99700D02*
X182000D01*
Y95269D01*
G01X195500Y119000D02*
X189300D01*
G01X193900Y138400D02*
X189300D01*
G01Y153700D02*
Y138400D01*
G01Y119000D02*
Y121553D01*
G01X172400Y115300D02*
Y119000D01*
X189300D01*
G01Y121553D02*
Y138400D01*
G01X177100Y172600D02*
Y155147D01*
X187700D01*
Y130847D01*
X186100D01*
Y128747D01*
G01D02*
Y121347D01*
X178447D01*
G01X202900Y138400D02*
X198200D01*
Y147997D01*
G01X178447Y123347D02*
X182600D01*
Y132447D01*
X186100D01*
Y147997D01*
X185600D01*
G01X178447Y135347D02*
X183700D01*
G01X178447Y137347D02*
X174294D01*
Y145097D01*
X184000D01*
G01X178447Y139347D02*
X184000D01*
G01X209600Y178400D02*
X198300D01*
Y153700D01*
X202500D01*
G01X193500D02*
X189300D01*
G01D02*
Y157399D01*
X187200D01*
G01D02*
X181300D01*
Y170600D01*
G01X190300D02*
X186100D01*
Y174300D01*
G01D02*
X177100D01*
Y172600D01*
G01X190700Y185600D02*
X194900D01*
Y187550D01*
X249700D01*
G01X209600Y183600D02*
X196500D01*
Y174300D01*
X186100D01*
G01X181700Y185600D02*
X177500D01*
G01X221000Y193069D02*
X177500D01*
Y185601D01*
G01Y185600D02*
Y185601D01*
G01X181700Y182398D02*
Y185600D01*
G01D02*
Y188802D01*
G01Y185600D02*
X185402D01*
G01X196100Y220500D02*
X211600D01*
Y220200D01*
X215800D01*
G01X187300Y203800D02*
X191501D01*
Y212901D01*
G01D02*
X240500D01*
Y219800D01*
G01X187100Y220500D02*
X191501D01*
Y212901D01*
G01X196300Y203800D02*
X216200D01*
G01X243450Y24400D02*
Y21400D01*
X220800D01*
Y27300D01*
G01X207600Y19800D02*
Y27300D01*
G01Y19800D02*
X254599D01*
Y24300D01*
G01X220900Y45700D02*
Y39900D01*
X242950D01*
Y42900D01*
G01X207600Y27300D02*
Y45700D01*
G01X211800Y27300D02*
X207600D01*
G01Y45700D02*
X211900D01*
G01Y42498D02*
Y45700D01*
G01D02*
Y48902D01*
G01X211800Y24098D02*
Y27300D01*
G01D02*
Y30502D01*
G01Y27300D02*
X215502D01*
G01X320700Y70600D02*
X312123D01*
Y73450D01*
X227300D01*
G01X235800Y99100D02*
X227300D01*
G01X224000Y157000D02*
Y140400D01*
X219400D01*
G01X218400Y118600D02*
X211900D01*
Y153700D01*
X202500D01*
G01X225600Y181000D02*
X220150D01*
Y165100D01*
X266500D01*
G01X228200Y157000D02*
X224000D01*
G01X209600Y181000D02*
X217601D01*
Y162700D01*
X224000D01*
Y157000D01*
G01X209600Y175800D02*
X204150D01*
Y161100D01*
G01D02*
X219200D01*
Y157000D01*
G01X225600Y178400D02*
X249400D01*
G01X267100Y172000D02*
Y168300D01*
X239050D01*
Y175800D01*
X225600D01*
G01X254400Y186800D02*
Y185450D01*
X215550D01*
G01X221000Y193069D02*
X290030D01*
Y187470D01*
X298430D01*
Y171970D01*
G01X221000Y203800D02*
Y193069D01*
G01X225200Y200598D02*
Y203800D01*
G01X225600Y183600D02*
X248600D01*
Y181250D01*
G01X224800Y220200D02*
X220101D01*
Y215001D01*
G01X225200Y203800D02*
X221000D01*
G01X225200D02*
Y207002D01*
G01Y203800D02*
X228902D01*
G01X260400Y21098D02*
Y24300D01*
G01X287700Y28600D02*
Y32300D01*
X256699D01*
G01X239200Y50900D02*
Y54600D01*
G01D02*
X245950D01*
Y37900D01*
G01D02*
X239700D01*
Y32400D01*
G01X260150Y38800D02*
Y48501D01*
G01X254599Y24300D02*
Y35300D01*
X267650D01*
G01X260400Y24300D02*
X254599D01*
G01X260400D02*
Y27502D01*
G01Y24300D02*
X264102D01*
G01X284350Y38300D02*
Y51400D01*
X250101D01*
G01X250000Y66000D02*
X245800D01*
G01X293800Y69500D02*
X250000D01*
Y66000D01*
G01X249600Y82000D02*
Y95000D01*
G01X245400Y82000D02*
X249600D01*
G01X236800Y66000D02*
X232600D01*
G01X331800Y97600D02*
X326750D01*
Y66150D01*
X303900D01*
Y71600D01*
X232600D01*
Y66000D01*
G01X259250Y57800D02*
Y65800D01*
G01Y78800D02*
Y82300D01*
G01X320700Y103000D02*
X296800D01*
Y95000D01*
X249600D01*
G01D02*
Y99100D01*
X244800D01*
G01X261350Y91000D02*
X261600D01*
Y86800D01*
X263000D01*
G01X259250Y99600D02*
Y132447D01*
X236300D01*
G01X262400Y141300D02*
Y136147D01*
X243200D01*
G01X248600Y157000D02*
Y141300D01*
X253400D01*
G01X249400Y178400D02*
Y172000D01*
X253600D01*
G01X253300Y157000D02*
X248600D01*
G01X284530Y186970D02*
Y190870D01*
X258600D01*
Y178400D01*
X249400D01*
G01X250300Y204400D02*
X245500D01*
Y196971D01*
G01X249500Y219800D02*
Y209700D01*
X235500D01*
Y204400D01*
X241300D01*
G01X291450Y20600D02*
Y24300D01*
X269400D01*
G01X267650Y35300D02*
X291850D01*
G01X267650Y38800D02*
Y35300D01*
G01X291850Y38300D02*
Y35300D01*
G01X299000Y59800D02*
Y35300D01*
X291850D01*
G01Y38300D02*
Y40802D01*
G01X289348Y38300D02*
X291850D01*
G01D02*
X294352D01*
G01X267650Y38800D02*
Y41302D01*
G01X265148Y38800D02*
X267650D01*
G01D02*
X270152D01*
G01X288100Y46300D02*
Y41400D01*
G01X279500Y64300D02*
X299000D01*
Y59800D01*
G01X279500Y64300D02*
Y60600D01*
G01X277249Y64300D02*
X279500D01*
G01X283700Y79800D02*
X277249D01*
G01X279500Y60600D02*
X283700D01*
G01Y76598D02*
Y79800D01*
G01D02*
Y83002D01*
G01Y79800D02*
X287402D01*
G01X283700Y57398D02*
Y60600D01*
G01D02*
Y63802D01*
G01Y60600D02*
X287402D01*
G01X266750Y57800D02*
Y54800D01*
X292700D01*
Y60600D01*
G01X266750Y78800D02*
Y85100D01*
X292700D01*
Y79800D01*
G01X263000Y65800D02*
Y60000D01*
G01X283600Y102700D02*
X279400D01*
G01D02*
Y100599D01*
G01X283600Y99498D02*
Y102700D01*
G01D02*
Y105902D01*
G01Y102700D02*
X287302D01*
G01X266750Y99600D02*
Y108000D01*
X292600D01*
Y102700D01*
G01X263000Y107600D02*
Y100300D01*
G01X262300Y157000D02*
X266500D01*
Y165100D01*
G01X269200Y181970D02*
Y165100D01*
X266500D01*
G01X262600Y172000D02*
X267100D01*
G01X291128Y171970D02*
X294530D01*
G01X263400Y186800D02*
X269200D01*
Y181970D01*
G01X294530D02*
X269200D01*
G01X320700Y59800D02*
X299000D01*
G01X320700Y55848D02*
Y59800D01*
G01D02*
Y63752D01*
G01Y59800D02*
X324652D01*
G01X298430Y171970D02*
X294530D01*
G01Y168568D02*
Y171970D01*
G01D02*
Y175372D01*
G54D23*
X170400Y115300D03*
X168400D03*
X166400D03*
X164400D03*
X162400D03*
X160400D03*
X158400D03*
X156400D03*
X154400D03*
X152400D03*
X150400D03*
Y149394D03*
X152400D03*
X154400D03*
X156400D03*
X158400D03*
X160400D03*
X162400D03*
X164400D03*
X166400D03*
X168400D03*
X170400D03*
X172400Y115300D03*
Y149394D03*
G54D14*
X36103Y200500D03*
X61300D03*
G54D24*
X151145Y100013D03*
X159019Y100406D03*
G54D15*
X82800Y16500D03*
X73800D03*
X83300Y36000D03*
X74300D03*
X78000Y108000D03*
X80200Y85500D03*
X77600Y124100D03*
X111400Y15700D03*
X102400D03*
X111600Y36300D03*
X102600D03*
X112000Y109000D03*
X103000D03*
X87000Y108000D03*
X89200Y85500D03*
X111650Y85600D03*
X102650D03*
X111400Y124400D03*
X102400D03*
X86600Y124100D03*
X111600Y139000D03*
X102600D03*
X110200Y173000D03*
X101200D03*
X111600Y154700D03*
X102600D03*
X103200Y202500D03*
X94200D03*
X138500Y85400D03*
X129500D03*
X126400Y66000D03*
X117400D03*
X134600Y172900D03*
X125600D03*
X155700Y66200D03*
X146700D03*
X161500Y172600D03*
X152500D03*
X186300Y85300D03*
X177300D03*
X186200Y99700D03*
X177200D03*
X204500Y119000D03*
X195500D03*
X202900Y138400D03*
X193900D03*
X190300Y170600D03*
X181300D03*
X202500Y153700D03*
X193500D03*
X196300Y203800D03*
X187300D03*
X190700Y185600D03*
X181700D03*
X196100Y220500D03*
X187100D03*
X220800Y27300D03*
X211800D03*
X220900Y45700D03*
X211900D03*
X228400Y140400D03*
X219400D03*
X227400Y118600D03*
X218400D03*
X228200Y157000D03*
X219200D03*
X225200Y203800D03*
X216200D03*
X224800Y220200D03*
X215800D03*
X260400Y24300D03*
X245800Y66000D03*
X236800D03*
X245400Y82000D03*
X236400D03*
X244800Y99100D03*
X235800D03*
X262400Y141300D03*
X253400D03*
X262600Y172000D03*
X253600D03*
X262300Y157000D03*
X253300D03*
X250300Y204400D03*
X241300D03*
X263400Y186800D03*
X254400D03*
X249500Y219800D03*
X240500D03*
X269400Y24300D03*
X292700Y79800D03*
X283700D03*
X292700Y60600D03*
X283700D03*
X292600Y102700D03*
X283600D03*
G54D16*
X80200Y59500D03*
Y62100D03*
Y64700D03*
Y67300D03*
X96200D03*
Y64700D03*
Y62100D03*
Y59500D03*
X225600Y183600D03*
Y181000D03*
Y178400D03*
Y175800D03*
X209600D03*
Y178400D03*
Y181000D03*
Y183600D03*
G54D25*
X243450Y24400D03*
X235950D03*
X242950Y42900D03*
X235450D03*
X260150Y38800D03*
X259250Y78800D03*
Y57800D03*
Y99600D03*
X291450Y20600D03*
X283950D03*
X291850Y38300D03*
X284350D03*
X267650Y38800D03*
X266750Y78800D03*
Y57800D03*
Y99600D03*
G54D26*
X239700Y32400D03*
X239200Y50900D03*
X263000Y65800D03*
Y86800D03*
Y107600D03*
X288100Y46300D03*
X263900Y46800D03*
X287700Y28600D03*
G54D17*
X95600Y12800D03*
X97700Y36000D03*
X86150Y67300D03*
X92850Y75550D03*
X93900Y85500D03*
X107000Y178283D03*
X139700Y51000D03*
X133700Y66200D03*
X141800Y68300D03*
X133700Y89600D03*
X116100Y124400D03*
X126300Y127347D03*
X139700Y139347D03*
X137600Y156147D03*
X138600Y185601D03*
X163172Y9447D03*
X166400Y36300D03*
X146992Y53100D03*
X152400Y141947D03*
X170600Y129247D03*
X149092Y121553D03*
Y131347D03*
X154500Y144047D03*
X166400Y139847D03*
X172553Y125347D03*
X152400Y119953D03*
X149006Y141347D03*
X163172Y137347D03*
X150400Y154047D03*
X160300Y157441D03*
X162400Y155341D03*
X170400Y159541D03*
X149500Y178283D03*
Y203800D03*
X186100Y70400D03*
X189300Y105500D03*
Y121553D03*
X186100Y128747D03*
X183700Y135347D03*
X184000Y145097D03*
Y139347D03*
X187200Y157399D03*
X198200Y147997D03*
X185600D03*
X205500Y41400D03*
X227300Y73450D03*
Y99100D03*
X204150Y161100D03*
X215550Y185450D03*
X220101Y215001D03*
X256699Y32300D03*
X245950Y37900D03*
X260150Y48501D03*
X250101Y51400D03*
X259250Y65800D03*
X263000Y60000D03*
X259250Y82300D03*
X261350Y91000D03*
X263000Y100300D03*
X243200Y136147D03*
X236300Y132447D03*
X248600Y157000D03*
X249700Y187550D03*
X245500Y196971D03*
X248600Y181250D03*
X288100Y41400D03*
X277249Y79800D03*
Y64300D03*
X279400Y100599D03*
X267100Y172000D03*
X293800Y69500D03*
G54D18*
X144353Y121347D03*
Y123347D03*
Y125347D03*
Y127347D03*
Y129347D03*
Y131347D03*
Y133347D03*
Y135347D03*
Y137347D03*
Y139347D03*
Y141347D03*
Y143347D03*
X178447D03*
Y141347D03*
Y139347D03*
Y137347D03*
Y135347D03*
Y133347D03*
Y131347D03*
Y129347D03*
Y127347D03*
Y125347D03*
Y123347D03*
Y121347D03*
G54D27*
X294530Y171970D03*
G54D28*
X284530Y176970D03*
Y186970D03*
Y196970D03*
Y206970D03*
X294530Y181970D03*
Y191970D03*
Y201970D03*
X338821Y163387D03*
Y173387D03*
Y205553D03*
Y215553D03*
G54D19*
X126300Y119134D03*
G54D29*
X319530Y166970D03*
Y211970D03*
M02*
