G04 ================== begin FILE IDENTIFICATION RECORD ==================*
G04 Layout Name:  remotepanasonicDB9-rout.brd*
G04 Film Name:    gerber_maskbtm*
G04 File Format:  Gerber RS274X*
G04 File Origin:  Cadence Allegro 16.6-P004*
G04 Origin Date:  Thu Dec 17 13:28:18 2015*
G04 *
G04 Layer:  VIA CLASS/SOLDERMASK_BOTTOM*
G04 Layer:  PIN/SOLDERMASK_BOTTOM*
G04 Layer:  PACKAGE GEOMETRY/SOLDERMASK_BOTTOM*
G04 Layer:  DRAWING FORMAT/OUTLINE*
G04 Layer:  DRAWING FORMAT/TITLE_BLOCK*
G04 Layer:  DRAWING FORMAT/TITLE_DATA*
G04 Layer:  DRAWING FORMAT/REVISION_BLOCK*
G04 Layer:  DRAWING FORMAT/REVISION_DATA*
G04 Layer:  BOARD GEOMETRY/OUTLINE*
G04 Layer:  BOARD GEOMETRY/SOLDERMASK_BOTTOM*
G04 *
G04 Offset:    (0.00 0.00)*
G04 Mirror:    No*
G04 Mode:      Positive*
G04 Rotation:  0*
G04 FullContactRelief:  No*
G04 UndefLineWidth:     2.00*
G04 ================== end FILE IDENTIFICATION RECORD ====================*
%FSLAX25Y25*MOIN*%
%IR0*IPPOS*OFA0.00000B0.00000*MIA0B0*SFA1.00000B1.00000*%
%AMMACRO16*
4,1,44,.02677,-.07087,
-.02677,-.07087,
-.027454,-.07081,
-.028117,-.070633,
-.02874,-.070343,
-.029302,-.069949,
-.029788,-.069464,
-.030182,-.068902,
-.030472,-.06828,
-.03065,-.067616,
-.03071,-.066933,
-.03071,-.06693,
-.03071,.06693,
-.03065,.067614,
-.030473,.068277,
-.030183,.0689,
-.029789,.069462,
-.029304,.069948,
-.028742,.070342,
-.02812,.070632,
-.027456,.07081,
-.026773,.07087,
-.02677,.07087,
.02677,.07087,
.027454,.07081,
.028117,.070633,
.02874,.070343,
.029302,.069949,
.029788,.069464,
.030182,.068902,
.030472,.06828,
.03065,.067616,
.03071,.066933,
.03071,.06693,
.03071,-.06693,
.03065,-.067614,
.030473,-.068277,
.030183,-.0689,
.029789,-.069462,
.029304,-.069948,
.028742,-.070342,
.02812,-.070632,
.027456,-.07081,
.026773,-.07087,
.02677,-.07087,
0.0*
%
%ADD16MACRO16*%
%ADD11C,.07*%
%ADD15C,.044*%
%ADD23C,.054*%
%ADD18R,.05X.05*%
%ADD22C,.058*%
%ADD12R,.07X.07*%
%ADD20R,.05906X.05906*%
%ADD14O,.07874X.16535*%
%ADD13O,.16535X.07874*%
%ADD24C,.12*%
%ADD19R,.06X.05*%
%ADD10C,.21*%
%ADD21O,.05906X.07874*%
%AMMACRO17*
4,1,40,.20866,-.20787,
-.20866,-.20787,
-.209344,-.207811,
-.210006,-.207634,
-.210629,-.207345,
-.211191,-.206952,
-.211677,-.206467,
-.212071,-.205905,
-.212361,-.205284,
-.21254,-.204621,
-.2126,-.20394,
-.2126,.20394,
-.212539,.204623,
-.212361,.205286,
-.21207,.205907,
-.211675,.206469,
-.211189,.206953,
-.210627,.207346,
-.210004,.207635,
-.209341,.207811,
-.20866,.20787,
.20866,.20787,
.209344,.207811,
.210006,.207634,
.210629,.207345,
.211191,.206952,
.211677,.206467,
.212071,.205905,
.212361,.205284,
.21254,.204621,
.2126,.20394,
.2126,-.20394,
.212539,-.204623,
.212361,-.205286,
.21207,-.205907,
.211675,-.206469,
.211189,-.206953,
.210627,-.207346,
.210004,-.207635,
.209341,-.207811,
.20866,-.20787,
0.0*
%
%ADD17MACRO17*%
%ADD25C,.002*%
G75*
%LPD*%
G75*
G54D10*
X35600Y49540D03*
Y148540D03*
X326100Y31900D03*
Y130900D03*
G54D20*
X158400Y15200D03*
G54D11*
X41000Y77440D03*
X29900Y82840D03*
X41000Y109840D03*
Y99040D03*
Y88240D03*
X29900Y115240D03*
Y104440D03*
Y93640D03*
X320700Y70600D03*
Y81400D03*
Y92200D03*
Y103000D03*
X331800Y65200D03*
Y76000D03*
Y86800D03*
Y97600D03*
G54D21*
X151145Y100013D03*
X159019Y100406D03*
G54D12*
X41000Y120640D03*
X320700Y59800D03*
G54D13*
X48702Y181996D03*
G54D22*
X294530Y171970D03*
G54D14*
X36103Y200500D03*
X61300D03*
G54D23*
X284530Y176970D03*
Y186970D03*
Y196970D03*
Y206970D03*
X294530Y181970D03*
Y191970D03*
Y201970D03*
X338821Y163387D03*
Y173387D03*
Y205553D03*
Y215553D03*
G54D24*
X307522Y158978D03*
Y219962D03*
G54D15*
X95600Y12800D03*
X97700Y36000D03*
X86150Y67300D03*
X92850Y75550D03*
X93900Y85500D03*
X107000Y178283D03*
X139700Y51000D03*
X133700Y66200D03*
X141800Y68300D03*
X133700Y89600D03*
X116100Y124400D03*
X126300Y127347D03*
X139700Y139347D03*
X137600Y156147D03*
X138600Y185601D03*
X163172Y9447D03*
X166400Y36300D03*
X146992Y53100D03*
X152400Y141947D03*
X170600Y129247D03*
X149092Y121553D03*
Y131347D03*
X154500Y144047D03*
X166400Y139847D03*
X172553Y125347D03*
X152400Y119953D03*
X149006Y141347D03*
X163172Y137347D03*
X150400Y154047D03*
X160300Y157441D03*
X162400Y155341D03*
X170400Y159541D03*
X149500Y178283D03*
Y203800D03*
X186100Y70400D03*
X189300Y105500D03*
Y121553D03*
X186100Y128747D03*
X183700Y135347D03*
X184000Y145097D03*
Y139347D03*
X187200Y157399D03*
X198200Y147997D03*
X185600D03*
X205500Y41400D03*
X227300Y73450D03*
Y99100D03*
X204150Y161100D03*
X215550Y185450D03*
X220101Y215001D03*
X256699Y32300D03*
X245950Y37900D03*
X260150Y48501D03*
X250101Y51400D03*
X259250Y65800D03*
X263000Y60000D03*
X259250Y82300D03*
X261350Y91000D03*
X263000Y100300D03*
X243200Y136147D03*
X236300Y132447D03*
X248600Y157000D03*
X249700Y187550D03*
X245500Y196971D03*
X248600Y181250D03*
X288100Y41400D03*
X277249Y79800D03*
Y64300D03*
X279400Y100599D03*
X267100Y172000D03*
X293800Y69500D03*
G54D25*
G01X-50Y0D02*
Y236000D01*
X363250D01*
Y0D01*
X-50D01*
G54D16*
X107000Y162109D03*
X97000D03*
X117000D03*
G54D17*
X107000Y200574D03*
G54D18*
X126300Y140000D03*
G54D19*
X144400Y214000D03*
X144700Y197500D03*
X153700D03*
X153400Y214000D03*
M02*
