G04 ================== begin FILE IDENTIFICATION RECORD ==================*
G04 Layout Name:  remotepanasonicDB9-rout-V3-0.brd*
G04 Film Name:    Gerbertop-layer1*
G04 File Format:  Gerber RS274X*
G04 File Origin:  Cadence Allegro 16.6-P004*
G04 Origin Date:  Sun Jan 17 09:42:51 2016*
G04 *
G04 Layer:  VIA CLASS/TOP*
G04 Layer:  PIN/TOP*
G04 Layer:  ETCH/TOP*
G04 Layer:  DRAWING FORMAT/OUTLINE*
G04 Layer:  DRAWING FORMAT/TITLE_BLOCK*
G04 Layer:  DRAWING FORMAT/TITLE_DATA*
G04 Layer:  DRAWING FORMAT/REVISION_BLOCK*
G04 Layer:  DRAWING FORMAT/REVISION_DATA*
G04 Layer:  BOARD GEOMETRY/OUTLINE*
G04 *
G04 Offset:    (0.00 0.00)*
G04 Mirror:    No*
G04 Mode:      Positive*
G04 Rotation:  0*
G04 FullContactRelief:  No*
G04 UndefLineWidth:     2.00*
G04 ================== end FILE IDENTIFICATION RECORD ====================*
%FSLAX25Y25*MOIN*%
%IR0*IPPOS*OFA0.00000B0.00000*MIA0B0*SFA1.00000B1.00000*%
%ADD20C,.05*%
%ADD31C,.054*%
%ADD18C,.028*%
%ADD12C,.065*%
%ADD21R,.05X.05*%
%ADD30R,.054X.054*%
%ADD17R,.036X.036*%
%ADD13R,.065X.065*%
%ADD23C,.05906*%
%ADD24R,.05906X.05906*%
%ADD15O,.07874X.16535*%
%ADD14O,.16535X.07874*%
%ADD11C,.2*%
%ADD10R,.06X.05*%
%ADD16R,.036X.05*%
%ADD28O,.075X.024*%
%ADD29C,.118*%
%ADD27O,.05906X.011*%
%ADD26O,.011X.05906*%
%ADD32C,.15354*%
%AMMACRO19*
4,1,44,-.20669,-.20591,
.20669,-.20591,
.207374,-.20585,
.208037,-.205673,
.208659,-.205383,
.209222,-.20499,
.209708,-.204504,
.210102,-.203942,
.210392,-.20332,
.21057,-.202657,
.21063,-.201973,
.21063,-.20197,
.21063,.20197,
.21057,.202654,
.210393,.203317,
.210103,.203939,
.20971,.204502,
.209224,.204988,
.208662,.205382,
.20804,.205672,
.207377,.20585,
.206693,.20591,
.20669,.20591,
-.20669,.20591,
-.207374,.20585,
-.208037,.205673,
-.208659,.205383,
-.209222,.20499,
-.209708,.204504,
-.210102,.203942,
-.210392,.20332,
-.21057,.202657,
-.21063,.201973,
-.21063,.20197,
-.21063,-.20197,
-.21057,-.202654,
-.210393,-.203317,
-.210103,-.203939,
-.20971,-.204502,
-.209224,-.204988,
-.208662,-.205382,
-.20804,-.205672,
-.207377,-.20585,
-.206693,-.20591,
-.20669,-.20591,
0.0*
%
%ADD19MACRO19*%
%ADD25O,.05906X.07874*%
%AMMACRO22*
4,1,44,-.0248,-.0689,
.0248,-.0689,
.025484,-.068841,
.026147,-.068663,
.026769,-.068374,
.027332,-.06798,
.027817,-.067495,
.028211,-.066933,
.028502,-.066311,
.02868,-.065648,
.02874,-.064965,
.02874,-.06496,
.02874,.06496,
.028681,.065644,
.028503,.066307,
.028214,.066929,
.02782,.067492,
.027335,.067977,
.026773,.068371,
.026151,.068662,
.025488,.06884,
.024805,.0689,
.0248,.0689,
-.0248,.0689,
-.025484,.068841,
-.026147,.068663,
-.026769,.068374,
-.027332,.06798,
-.027817,.067495,
-.028211,.066933,
-.028502,.066311,
-.02868,.065648,
-.02874,.064965,
-.02874,.06496,
-.02874,-.06496,
-.028681,-.065644,
-.028503,-.066307,
-.028214,-.066929,
-.02782,-.067492,
-.027335,-.067977,
-.026773,-.068371,
-.026151,-.068662,
-.025488,-.06884,
-.024805,-.0689,
-.0248,-.0689,
0.0*
%
%ADD22MACRO22*%
%ADD33C,.002*%
%ADD34C,.008*%
%ADD38C,.08404*%
%ADD37C,.09504*%
%ADD35C,.23004*%
%ADD36R,.09504X.09504*%
G75*
%LPD*%
G75*
G36*
G01X-179133Y-110235D02*
Y110235D01*
X179133D01*
Y-110235D01*
X-179133D01*
G37*
%LPC*%
G75*
G36*
G01X-138758Y77270D02*
G02X-149636I-5439J-1D01*
G01Y85930D01*
G02X-138758I5439J1D01*
G01Y77270D01*
G37*
G36*
G01X-135928Y57658D02*
G02Y68534I0J5438D01*
G01X-127268D01*
G02Y57658I0J-5438D01*
G01X-135928D01*
G37*
G36*
G01X129002Y101634D02*
G03X129577Y101306I399J31D01*
G02X124468Y93629I4053J-8236D01*
G03X123943Y94033I-399J24D01*
G02X129002Y101634I-2321J7029D01*
G37*
G36*
G01X113452Y-107502D02*
X-146402D01*
Y-100802D01*
X-149002D01*
Y-92798D01*
X-130998D01*
Y-100802D01*
X-133598D01*
Y-102148D01*
X-123302D01*
Y-95298D01*
X-120202D01*
Y-93198D01*
X-112752D01*
Y-75892D01*
G02X-108948I1902J2192D01*
G01Y-93198D01*
X-102902D01*
Y-56852D01*
X-138502D01*
Y-28598D01*
X-136316D01*
G03X-135997Y-27958I0J400D01*
G02X-135555Y-21735I3797J2858D01*
G03X-135837Y-21052I-282J283D01*
G01X-139552D01*
Y55300D01*
X-120902D01*
Y72174D01*
G02X-124438Y77270I1902J5095D01*
G01Y85930D01*
G02X-113562I5438J0D01*
G01Y77270D01*
G02X-117098Y72174I-5438J-1D01*
G01Y57084D01*
X-76002D01*
Y58082D01*
X-94769D01*
G02X-96664Y59977I0J1895D01*
G01Y100371D01*
G02X-94769Y102266I1895J0D01*
G01X-53431D01*
G02X-51536Y100371I0J-1895D01*
G01Y59977D01*
G02X-53431Y58082I-1895J0D01*
G01X-56498D01*
Y52991D01*
G02X-59213Y48013I-1902J-2192D01*
G03X-59724Y47629I-111J-384D01*
G01Y41535D01*
G03X-59288Y41137I400J0D01*
G02X-57124Y36055I262J-2890D01*
G01Y25948D01*
X-57698D01*
Y25102D01*
X-55598D01*
Y19735D01*
G03X-55162Y19337I400J0D01*
G02X-54113Y19240I262J-2890D01*
G03X-53604Y19625I109J385D01*
G01Y38655D01*
G02X-49802I1901J2192D01*
G01Y24083D01*
G03X-49244Y23715I400J0D01*
G02X-47970Y23946I1142J-2668D01*
G03X-47552Y24345I18J399D01*
G01Y55602D01*
X-37902D01*
Y57702D01*
X-31152D01*
Y64748D01*
X-35102D01*
Y108402D01*
X72002D01*
Y83598D01*
X68902D01*
Y81498D01*
X50898D01*
Y89502D01*
X53498D01*
Y91052D01*
X61698D01*
Y96898D01*
X50002D01*
Y71702D01*
X51050D01*
G02X52969Y70902I0J-2702D01*
G01X58350D01*
Y79972D01*
X94883D01*
G02X102377I3747J-1902D01*
G01X104902D01*
G03X105226Y80606I0J400D01*
G02X112034I3404J2464D01*
G03X112358Y79972I324J-234D01*
G01X115932D01*
Y45812D01*
G03X116603Y45518I400J0D01*
G02X123943Y47107I5020J-5440D01*
G03X124468Y47511I126J380D01*
G02X129577Y39834I9162J559D01*
G03X129002Y39506I-176J-359D01*
G02X116603Y34638I-7380J572D01*
G03X115932Y34344I-271J-294D01*
G01Y32548D01*
X65152D01*
Y26402D01*
X69748D01*
Y31252D01*
X108502D01*
Y-1802D01*
X103052D01*
Y-3902D01*
X96302D01*
Y-6298D01*
X97952D01*
Y-11707D01*
G02Y-16091I-1902J-2192D01*
G01Y-18402D01*
X88969D01*
G02X88649Y-18678I-1919J1902D01*
G03Y-19322I237J-322D01*
G02X88969Y-19598I-1599J-2178D01*
G01X107798D01*
Y-13898D01*
X116745D01*
G02X124897Y-18658I4355J-1903D01*
G03X125216Y-19298I319J-240D01*
G01X127845D01*
G02Y-23102I4355J-1902D01*
G01X125216D01*
G03X124897Y-23742I0J-400D01*
G02X117303I-3797J-2858D01*
G03X116984Y-23102I-319J240D01*
G01X113452D01*
Y-107502D01*
G37*
G54D38*
X98630Y88070D03*
X152921Y44487D03*
Y54487D03*
Y86653D03*
Y96653D03*
G54D37*
X121100Y-48200D03*
Y-37400D03*
X132200Y-53600D03*
Y-42800D03*
Y-32000D03*
G54D35*
X-126500Y-69200D03*
X126500Y-86900D03*
Y12100D03*
G54D36*
X121100Y-59000D03*
%LPD*%
G75*
G36*
G01X-130298Y-44748D02*
Y-40255D01*
G03X-128403Y-33042I-1902J4355D01*
G02X-128084Y-32402I319J240D01*
G01X-125455D01*
G03X-117792Y-27089I4355J1902D01*
G02X-117513Y-26402I278J287D01*
G01X-97752D01*
Y-32302D01*
X-92602D01*
Y-35061D01*
G02X-93195Y-35411I-400J0D01*
G03X-94338Y-40840I-1405J-2539D01*
G02X-93902Y-41238I36J-398D01*
G01Y-44748D01*
X-116947D01*
G02X-117269Y-44112I0J400D01*
G03X-124931I-3831J2812D01*
G02X-125253Y-44748I-322J-236D01*
G01X-130298D01*
G37*
G36*
G01X-99098Y-99048D02*
Y-53048D01*
X-134698D01*
Y-40286D01*
G02X-134406Y-40109I200J0D01*
G03X-134102Y-40255I2208J4208D01*
G01Y-48552D01*
X-97652D01*
Y-52902D01*
X-96252D01*
Y-63798D01*
X-98052D01*
Y-70402D01*
X-96652D01*
Y-75602D01*
X-57092D01*
G03X-55953Y-70996I2192J1902D01*
G02X-56498Y-70623I-145J373D01*
G01Y-63998D01*
X-63248D01*
Y-52802D01*
X-56498D01*
Y-44798D01*
X-63948D01*
Y-29902D01*
X-56598D01*
Y-21898D01*
X-64048D01*
Y-20348D01*
X-87398D01*
Y-19252D01*
X-45248D01*
Y-6402D01*
X-37518D01*
X-37478Y-6548D01*
G03X-35592Y-8052I1978J545D01*
G02X-35402Y-8252I-10J-200D01*
G01Y-11898D01*
X-36656D01*
Y-13875D01*
G03X-39210Y-17903I1901J-4029D01*
G01Y-19871D01*
G03X-36656Y-23899I4455J1D01*
G01Y-25482D01*
X-5752D01*
Y-29598D01*
X-13102D01*
Y-31698D01*
X-27450D01*
Y-32598D01*
X-44102D01*
Y-40602D01*
X-27952D01*
Y-48698D01*
X-43702D01*
Y-56702D01*
X-27952D01*
Y-61296D01*
X-41798D01*
Y-69046D01*
X-48454D01*
Y-77248D01*
X-90402D01*
Y-78798D01*
X-93002D01*
Y-87098D01*
X-95902D01*
Y-99048D01*
X-99098D01*
G37*
G36*
G01X-127845Y-12398D02*
G03X-135104Y-10539I-4355J-1902D01*
G02X-135748Y-10222I-244J317D01*
G01Y-7578D01*
G02X-135104Y-7261I400J0D01*
G03Y261I2904J3761D01*
G02X-135748Y578I-244J317D01*
G01Y21840D01*
G02X-135051Y22108I400J0D01*
G03Y37492I8551J7692D01*
G02X-135748Y37760I-297J268D01*
G01Y51498D01*
X-75308D01*
G02X-74910Y51061I0J-400D01*
G03Y50537I2890J-262D01*
G02X-75308Y50100I-398J-37D01*
G01X-76581D01*
G03X-78476Y48206I0J-1895D01*
G01Y35212D01*
G03X-76581Y33318I1895J1D01*
G01X-71619D01*
G03X-71448Y33325I8J1895D01*
G02X-71013Y32890I37J-398D01*
G03X-70052Y30450I2889J-271D01*
G02X-70318Y29752I-266J-298D01*
G01X-105252D01*
Y-3398D01*
X-106652D01*
Y-10002D01*
X-101502D01*
Y-12398D01*
X-116984D01*
G02X-117303Y-11758I0J400D01*
G03X-124897I-3797J2858D01*
G02X-125216Y-12398I-319J-240D01*
G01X-127845D01*
G37*
G36*
G01X-92848Y-71798D02*
Y-70402D01*
X-91448D01*
Y-65202D01*
X-90552D01*
Y-70402D01*
X-83948D01*
Y-65202D01*
X-77391D01*
G03X-74938Y-66190I2192J1902D01*
G02X-74502Y-66589I36J-398D01*
G01Y-71798D01*
X-92848D01*
G37*
G36*
G01X-97698Y-15448D02*
Y-10002D01*
X-92548D01*
Y-3398D01*
X-97698D01*
Y-2702D01*
X-96298D01*
Y5302D01*
X-101448D01*
Y25948D01*
X-90902D01*
Y18198D01*
X-87802D01*
Y16098D01*
X-80552D01*
Y9502D01*
X-88002D01*
Y1498D01*
X-80552D01*
Y-1668D01*
X-79564D01*
G02X-79199Y-2231I0J-400D01*
G03X-78802Y-5246I2649J-1185D01*
G02X-79113Y-5898I-311J-252D01*
G01X-87402D01*
Y-13902D01*
X-69398D01*
Y-11802D01*
X-68894D01*
X-68835Y-11866D01*
G03Y-7934I2135J1966D01*
G01X-68894Y-7998D01*
X-69398D01*
Y-5898D01*
X-74449D01*
G02X-74584Y-5551I0J200D01*
G03X-74358Y-5318I-1967J2134D01*
G01X-53702D01*
Y-9048D01*
X-55308D01*
G03Y-12852I-2192J-1902D01*
G01X-49898D01*
Y4546D01*
X-46008D01*
X-45999Y4355D01*
G03X-45741Y3447I2049J92D01*
G03X-43950Y396I1791J-1000D01*
G01X-39346D01*
Y-2598D01*
X-49052D01*
Y-15448D01*
X-97698D01*
G37*
G36*
G01X-81998Y-50648D02*
Y-47698D01*
X-83548D01*
Y-46298D01*
X-89098D01*
Y-45602D01*
X-87298D01*
Y-37598D01*
X-88725D01*
X-88765Y-37451D01*
G03X-88789Y-37370I-1835J-500D01*
G01X-88798Y-37341D01*
Y-32302D01*
X-83648D01*
Y-25698D01*
X-85048D01*
Y-24152D01*
X-74602D01*
Y-29902D01*
X-67752D01*
Y-44798D01*
X-74502D01*
Y-50648D01*
X-81998D01*
G37*
G36*
G01X4448Y-56002D02*
Y-88912D01*
G02X4012Y-89310I-400J0D01*
G03X5885Y-94166I-262J-2890D01*
G01X5944Y-94102D01*
X6350D01*
G03X7292Y-93852I-1J1902D01*
G01X27668D01*
G02X28066Y-94296I1J-400D01*
G03X29151Y-96778I2684J-305D01*
G02Y-97422I-237J-322D01*
G03X28049Y-99642I1599J-2177D01*
G02X27649Y-100048I-400J-6D01*
G01X-6446D01*
Y-77903D01*
G02X-5877Y-77540I400J0D01*
G03Y-69460I1877J4040D01*
G02X-6446Y-69097I-169J363D01*
G01Y-61296D01*
X-11098D01*
Y-56002D01*
X4448D01*
G37*
G36*
G01X-22745Y-21131D02*
G03X-22426Y-19478I-4136J1655D01*
G01Y-17510D01*
G03X-23662Y-14431I-4455J-1D01*
G02X-23373Y-13754I289J277D01*
G01X2648D01*
Y-15198D01*
X-13202D01*
Y-21680D01*
X-22373D01*
G02X-22745Y-21131I0J400D01*
G37*
G36*
G01X-12312Y-7675D02*
G03X-11448Y-6003I-1188J1673D01*
G01Y-1197D01*
G03X-11783Y-74I-2052J-1D01*
G02X-11449Y546I334J220D01*
G01X-10627D01*
X-10592Y532D01*
G03X-9856Y396I734J1915D01*
G01X-5050D01*
G03X-4314Y532I2J2051D01*
G01X-4279Y546D01*
X5098D01*
Y-3902D01*
X16698D01*
Y-8402D01*
X-12080D01*
G02X-12312Y-7675I-1J400D01*
G37*
G36*
G01X-1448Y16348D02*
Y17659D01*
G02X-1012Y18057I400J0D01*
G03X-2585Y23195I262J2890D01*
G02X-3199Y23332I-253J310D01*
G03X-3259Y23447I-1848J-891D01*
G03X-5050Y26498I-1791J1000D01*
G01X-9898D01*
Y75648D01*
X36652D01*
Y80898D01*
X43802D01*
Y88902D01*
X36652D01*
Y95748D01*
X40802D01*
Y97298D01*
X43402D01*
Y104598D01*
X50098D01*
Y102802D01*
X46198D01*
Y74802D01*
X40148D01*
Y70902D01*
X30369D01*
G03X28450Y71702I-1919J-1902D01*
G01X23350D01*
G03X21431Y70902I0J-2702D01*
G01X19098D01*
Y64802D01*
X16042D01*
G02X15686Y65383I0J400D01*
G03X10908Y68602I-2586J1317D01*
G01X9302D01*
Y70702D01*
X-8702D01*
Y62698D01*
X-1652D01*
Y61392D01*
G03Y57008I1902J-2192D01*
G01Y55702D01*
X-9102D01*
Y47698D01*
X8902D01*
Y55702D01*
X2152D01*
Y57008D01*
G03X2879Y60429I-1902J2192D01*
G02X3241Y60998I362J169D01*
G01X19098D01*
Y38802D01*
X3098D01*
Y30798D01*
X9160D01*
G02X9522Y30228I0J-400D01*
G03X10248Y26805I2628J-1231D01*
G01Y23502D01*
X3498D01*
Y16348D01*
X-1448D01*
G37*
G36*
G01X8252Y-80398D02*
Y-71302D01*
X22309D01*
G03X22948Y-72092I2541J1402D01*
G01Y-80398D01*
X8252D01*
G37*
G36*
G01X102398Y-35752D02*
Y-50399D01*
G02X101992Y-50799I-400J0D01*
G03X101950Y-50798I-85J-2700D01*
G01X96850D01*
G03X94979Y-51551I0J-2701D01*
G02X94302Y-51262I-277J289D01*
G01Y-41898D01*
X47092D01*
G03X44552Y-46681I-2192J-1902D01*
G03X44556Y-47162I2894J-216D01*
G02X44158Y-47598I-398J-36D01*
G01X35338D01*
G02X34940Y-47162I0J400D01*
G03X31392Y-44074I-2890J262D01*
G02X30902Y-43684I-90J390D01*
G01Y-41398D01*
X23292D01*
G03Y-45202I-2192J-1902D01*
G01X27098D01*
Y-65398D01*
X24002D01*
Y-63298D01*
X18638D01*
G02X18240Y-62862I0J400D01*
G03X12460I-2890J262D01*
G02X12062Y-63298I-398J-36D01*
G01X8252D01*
Y-44898D01*
X6452D01*
Y-16052D01*
X31698D01*
Y-22902D01*
X49844D01*
Y-28402D01*
X57431D01*
G03X57751Y-28678I1919J1902D01*
G02Y-29322I-237J-322D01*
G03X56858Y-32544I1599J-2178D01*
G02X56489Y-33098I-369J-154D01*
G01X50102D01*
Y-30998D01*
X32098D01*
Y-39002D01*
X50102D01*
Y-36902D01*
X68702D01*
Y-22188D01*
G02X69138Y-21790I400J0D01*
G03X70804Y-21440I263J2890D01*
G02X71398Y-21790I194J-350D01*
G01Y-35752D01*
X102398D01*
G37*
G36*
G01X8252Y-90048D02*
Y-88402D01*
X25202D01*
Y-86502D01*
X28831D01*
G03X29151Y-86778I1919J1902D01*
G02Y-87422I-237J-322D01*
G03X28049Y-89642I1599J-2177D01*
G02X27649Y-90048I-400J-6D01*
G01X8252D01*
G37*
G36*
G01X22902Y36702D02*
Y50899D01*
G02X23308Y51299I400J0D01*
G03X23350Y51298I85J2700D01*
G01X28450D01*
G03X30049Y56178I0J2702D01*
G02Y56822I237J322D01*
G03Y61178I-1599J2178D01*
G02Y61822I237J322D01*
G03X30369Y62098I-1599J2178D01*
G01X36248D01*
Y42102D01*
X28798D01*
Y34098D01*
X36248D01*
Y25502D01*
X28998D01*
Y18143D01*
G02X28459Y17768I-400J0D01*
G03X25258Y16948I-1008J-2721D01*
G01X21502D01*
Y18528D01*
G02X22174Y18821I400J0D01*
G03X26052Y23139I1976J2126D01*
G01Y36702D01*
X22902D01*
G37*
G36*
G01X38551Y-99642D02*
G03X37449Y-97422I-2701J43D01*
G02Y-96778I237J322D01*
G03X38534Y-94296I-1599J2177D01*
G02X38932Y-93852I397J44D01*
G01X41729D01*
G03X46341Y-94152I2420J1602D01*
G01X50249D01*
G02X50649Y-94558I0J-400D01*
G03X51979Y-96928I2701J-42D01*
G02Y-97272I-102J-172D01*
G03X51882Y-97332I1372J-2327D01*
G02X51617Y-97289I-109J168D01*
G03X46487Y-99582I-2268J-1810D01*
G02X46093Y-100048I-394J-66D01*
G01X38951D01*
G02X38551Y-99642I0J400D01*
G37*
G36*
G01X101950Y-71202D02*
G03X101992Y-71201I-43J2701D01*
G02X102398Y-71601I6J-400D01*
G01Y-80348D01*
X60448D01*
Y-81942D01*
G02X59842Y-82285I-400J0D01*
G03X58450Y-81898I-1393J-2315D01*
G01X53350D01*
G03X50666Y-84904I0J-2701D01*
G02X50268Y-85348I-397J-44D01*
G01X42452D01*
Y-71702D01*
X49902D01*
Y-63698D01*
X31898D01*
Y-71550D01*
X30902D01*
Y-53502D01*
X31698D01*
Y-55602D01*
X49702D01*
Y-48802D01*
X84998D01*
Y-66308D01*
G03X89092Y-70402I1902J-2192D01*
G01X94931D01*
G03X96850Y-71202I1919J1902D01*
G01X101950D01*
G37*
G36*
G01X61151Y-99642D02*
G03X60049Y-97422I-2701J43D01*
G02Y-96778I237J322D01*
G03X61151Y-94558I-1599J2177D01*
G02X61551Y-94152I400J6D01*
G01X62702D01*
Y-86502D01*
X63795D01*
G03X64598Y-87642I2705J1052D01*
G01Y-91502D01*
X72331D01*
G03X72651Y-91778I1919J1902D01*
G02Y-92422I-237J-322D01*
G03Y-96778I1599J-2178D01*
G02Y-97422I-237J-322D01*
G03X71549Y-99642I1599J-2177D01*
G02X71149Y-100048I-400J-6D01*
G01X61551D01*
G02X61151Y-99642I0J400D01*
G37*
G36*
G01X82051D02*
G03X80949Y-97422I-2701J43D01*
G02Y-96778I237J322D01*
G03X80721Y-92272I-1599J2178D01*
G02Y-91928I102J172D01*
G03X80885Y-91823I-1374J2326D01*
G03X84942Y-91502I1865J2223D01*
G01X94931D01*
G03X95251Y-91778I1919J1902D01*
G02Y-92422I-237J-322D01*
G03Y-96778I1599J-2178D01*
G02Y-97422I-237J-322D01*
G03X94931Y-97698I1599J-2178D01*
G01X89648D01*
Y-100048D01*
X82451D01*
G02X82051Y-99642I0J400D01*
G37*
G36*
G01X89092Y-66598D02*
G03X88802Y-66308I-2192J-1902D01*
G01Y-45702D01*
X90500D01*
Y-60402D01*
X94931D01*
G03X95251Y-60678I1919J1902D01*
G02Y-61322I-237J-322D01*
G03Y-65678I1599J-2178D01*
G02Y-66322I-237J-322D01*
G03X94931Y-66598I1599J-2178D01*
G01X89092D01*
G37*
G36*
G01X81202Y51122D02*
Y57102D01*
X73752D01*
Y64698D01*
X80502D01*
Y71168D01*
X94902D01*
G02X95226Y70534I0J-400D01*
G03X102377Y66168I3404J-2463D01*
G01X104902D01*
G02X105226Y65534I0J-400D01*
G03X110044Y59113I3404J-2464D01*
G02X110578Y58736I134J-377D01*
G01Y57272D01*
X104428D01*
Y51122D01*
X81202D01*
G37*
%LPC*%
G75*
G36*
G01X-86581Y50100D02*
X-81619D01*
G02X-79724Y48206I0J-1895D01*
G01Y35212D01*
G02X-81619Y33318I-1895J1D01*
G01X-86581D01*
G02X-88476Y35212I0J1895D01*
G01Y48206D01*
G02X-86581Y50100I1895J-1D01*
G37*
G36*
G01X79350Y-71202D02*
X74250D01*
G02X72651Y-66322I0J2702D01*
G03Y-65678I-237J322D01*
G02Y-61322I1599J2178D01*
G03Y-60678I-237J322D01*
G02X72331Y-60402I1599J2178D01*
G01X63643D01*
G02Y-56598I-2192J1902D01*
G01X64697D01*
G03X64928Y-55872I0J400D01*
G02X68792Y-51598I1672J2372D01*
G01X72331D01*
G02X74250Y-50798I1919J-1902D01*
G01X79350D01*
G02X80949Y-55678I0J-2702D01*
G03Y-56322I237J-322D01*
G02Y-60678I-1599J-2178D01*
G03Y-61322I237J-322D01*
G02Y-65678I-1599J-2178D01*
G03Y-66322I237J-322D01*
G02X79350Y-71202I-1599J-2178D01*
G37*
G54D38*
X98630Y58070D03*
G54D36*
X-121100Y1900D03*
%LPD*%
G75*
G54D10*
X-135500Y-96800D03*
X-144500D03*
X-106700Y-97200D03*
X-115700D03*
X-88300Y-97300D03*
X-88500Y-82800D03*
X-79300Y-97300D03*
X-61000Y-68000D03*
X-70000D03*
X-79500Y-82800D03*
X-61000Y-48800D03*
X-70000D03*
X-61100Y-25900D03*
X-70100D03*
X-73900Y-9900D03*
X-82900D03*
X-74300Y20100D03*
X-83300D03*
X-74500Y5500D03*
X-83500D03*
X-43900Y-92000D03*
X-52900D03*
X-30200Y-52700D03*
X-39200D03*
X-30600Y-36600D03*
X-39600D03*
X-33400Y53700D03*
X-15000Y-92500D03*
X-24000D03*
X1700Y-52000D03*
X-7300D03*
X400Y-33600D03*
X-8600D03*
X300Y-19200D03*
X-8700D03*
X-24400Y53700D03*
X-4600Y51700D03*
X-4200Y66700D03*
X-18500Y84700D03*
X-27500D03*
X20700Y-84400D03*
X11700D03*
X19500Y-67300D03*
X10500D03*
X18600Y100D03*
X9600D03*
X17000Y19500D03*
X8000D03*
X16600Y34800D03*
X7600D03*
X4400Y51700D03*
X4800Y66700D03*
X13000Y84300D03*
X4000D03*
X30300Y84900D03*
X29900Y101300D03*
X45400Y-67700D03*
X36400D03*
X45200Y-51600D03*
X36200D03*
X45600Y-35000D03*
X36600D03*
X41500Y-300D03*
X32500D03*
X45200Y-18900D03*
X36200D03*
X42500Y21500D03*
X33500D03*
X42300Y38100D03*
X33300D03*
X39300Y84900D03*
X55400Y85500D03*
X54600Y100900D03*
X38900Y101300D03*
X89550Y100D03*
X76100Y0D03*
X67100D03*
X76500Y22400D03*
X67500D03*
X91900Y22600D03*
X76400Y38100D03*
X67400D03*
X76700Y53100D03*
X67700D03*
X67000Y68700D03*
X76000D03*
X64400Y85500D03*
X63600Y100900D03*
X98550Y100D03*
X100900Y22600D03*
G54D11*
X-126500Y-69200D03*
Y29800D03*
X126500Y-86900D03*
Y12100D03*
G54D20*
X-59600Y234D03*
G54D30*
X108630Y53070D03*
G54D21*
X-59600Y21100D03*
G54D12*
X-121100Y-30500D03*
Y-41300D03*
X-132200Y-35900D03*
X-121100Y-8900D03*
Y-19700D03*
X-132200Y-3500D03*
Y-14300D03*
Y-25100D03*
X121100Y-48200D03*
Y-37400D03*
Y-26600D03*
Y-15800D03*
X132200Y-53600D03*
Y-42800D03*
Y-32000D03*
Y-21200D03*
G54D22*
X-84100Y41709D03*
X-74100D03*
X-64100D03*
G54D13*
X-121100Y1900D03*
X121100Y-59000D03*
G54D31*
X98630Y58070D03*
X108630Y63070D03*
X98630Y68070D03*
X108630Y73070D03*
X98630Y78070D03*
X108630Y83070D03*
X98630Y88070D03*
X152921Y44487D03*
Y54487D03*
Y86653D03*
Y96653D03*
G54D32*
X133630Y48070D03*
Y93070D03*
G54D14*
X-131598Y63096D03*
G54D23*
X-34000Y-73500D03*
X-4000D03*
X-14000D03*
X-24000D03*
G54D33*
G01X-179134Y-110236D02*
Y110236D01*
X179134D01*
Y-110236D01*
X-179134D01*
G54D15*
X-144197Y81600D03*
X-119000D03*
G54D24*
X-44000Y-73500D03*
G54D34*
G01X-135500Y-96800D02*
Y-104050D01*
X108950D01*
Y-37400D01*
G01X-115700Y-97200D02*
X-121400D01*
Y-102500D01*
X-66700D01*
Y-100950D01*
G01X-144500Y-96800D02*
Y-105600D01*
X111550D01*
Y-26500D01*
G01X-126500Y-80902D02*
Y-69200D01*
G01D02*
Y-57498D01*
G01X-138202Y-69200D02*
X-126500D01*
G01D02*
X-114798D01*
G01X-121100Y-41300D02*
Y-36348D01*
G01X-126052Y-41300D02*
X-121100D01*
G01D02*
X-116148D01*
G01X-132200Y-35900D02*
Y-46650D01*
X-91000D01*
Y-59100D01*
G01X-121100Y-30500D02*
X-136600D01*
Y-54950D01*
X-101000D01*
Y-100950D01*
X-69350D01*
Y-98350D01*
X-62550D01*
Y-100951D01*
X-8347D01*
G01X-132200Y-8452D02*
Y-3500D01*
G01D02*
Y1452D01*
G01Y-3500D02*
X-127248D01*
G01X-132200Y-14300D02*
X-99600D01*
Y1300D01*
G01X-94450Y-29000D02*
Y-24500D01*
X-126250D01*
Y-19150D01*
X-137650D01*
Y53399D01*
X-68124D01*
Y32619D01*
G01X-126500Y18098D02*
Y29800D01*
G01D02*
X-84100D01*
G01X-126500D02*
Y41502D01*
G01X-144197Y71630D02*
Y81600D01*
G01D02*
Y91570D01*
G01X-149836Y81600D02*
X-144197D01*
G01D02*
X-138558D01*
G01X-106700Y-97200D02*
X-110850D01*
Y-73700D01*
G01X-88300Y-97300D02*
X-94000D01*
Y-89000D01*
X-79500D01*
Y-82800D01*
G01X-94750Y-67100D02*
Y-73700D01*
X-54900D01*
G01X-98400Y-76300D02*
X-87250D01*
G01X-90752Y-67100D02*
X-87250D01*
G01X-94350Y-49600D02*
Y-63300D01*
X-75199D01*
G01X-90700Y-21000D02*
Y-37950D01*
G01D02*
X-94600D01*
G01X-90600Y-41600D02*
Y-37950D01*
X-90700D01*
G01X-41547Y10447D02*
X-37444D01*
Y-4500D01*
X-47150D01*
Y-17350D01*
X-110850D01*
G01X-87650Y-3500D02*
X-91850D01*
G01X-95850Y-6700D02*
Y-3500D01*
X-91850D01*
G01X-95850Y-10202D02*
Y-6700D01*
G01D02*
X-92348D01*
G01X-103350D02*
Y27850D01*
X-59026D01*
Y38247D01*
G01X-119000Y81600D02*
Y55183D01*
X-66700D01*
Y54783D01*
X-64100D01*
G01X-79300Y-97300D02*
X-71950D01*
G01X-88500Y-82800D02*
Y-79150D01*
X-57050D01*
G01X-87250Y-76300D02*
X-50750D01*
Y-52700D01*
X-43750D01*
G01X-87250Y-67100D02*
Y-71100D01*
G01Y-67100D02*
X-83748D01*
G01X-70000Y-68000D02*
Y-52549D01*
X-83900D01*
Y-49600D01*
X-86850D01*
G01X-61000Y-68000D02*
X-65150D01*
Y-48800D01*
G01X-70000D02*
X-79750D01*
G01X-61000D02*
X-65150D01*
G01X-70100Y-25900D02*
X-65850D01*
Y-48800D01*
X-65150D01*
G01X-73900Y-9900D02*
X-66700D01*
G01X-51800Y-3416D02*
X-76550D01*
G01X-82900Y-9900D02*
X-87650D01*
G01X-83500Y5500D02*
X-87650D01*
Y-3500D01*
G01Y-9900D02*
Y-3500D01*
G01X-82900Y-14102D02*
Y-9900D01*
G01D02*
Y-5698D01*
G01X-61100Y-25900D02*
Y-23800D01*
X-65950D01*
Y-22250D01*
X-86950D01*
Y-29000D01*
G01X-74300Y20100D02*
X-78650D01*
Y234D01*
X-59600D01*
G01X-74500Y5500D02*
X-59600D01*
Y8447D01*
G01X-83300Y20100D02*
X-89000D01*
Y24750D01*
X-59600D01*
Y21100D01*
G01X-83500Y1298D02*
Y5500D01*
G01D02*
Y9702D01*
G01X-64100Y54783D02*
Y41709D01*
G01D02*
Y30800D01*
G01X-74100Y80174D02*
Y58433D01*
X-58400D01*
Y50799D01*
G01X-74100Y41709D02*
X-72020D01*
Y50799D01*
G01X-84100D02*
Y41709D01*
G01Y29800D02*
Y41709D01*
G01X-88676D02*
X-84100D01*
G01D02*
X-79524D01*
G01X-24000Y-92500D02*
X-28150D01*
Y-92000D01*
X-43900D01*
G01X-52900D02*
X-57050D01*
Y-79150D01*
G01X-14000Y-73500D02*
X-9897D01*
Y-98351D01*
X-57500D01*
G01X-57050Y-79150D02*
X-39897D01*
Y-63197D01*
X-26050D01*
Y-52700D01*
G01X-30200D02*
X-26050D01*
G01X-30600Y-36600D02*
X-25549D01*
G01X-43750Y-52700D02*
Y-36600D01*
G01X-39200Y-52700D02*
X-43750D01*
G01Y-36600D02*
Y-27350D01*
G01X-39600Y-36600D02*
X-43750D01*
G01X-39200Y-56902D02*
Y-52700D01*
G01D02*
Y-48498D01*
G01X-39600Y-40802D02*
Y-36600D01*
G01D02*
Y-32398D01*
G01X-41547Y6447D02*
X-51800D01*
Y-3416D01*
G01D02*
Y-10950D01*
X-57500D01*
G01X-3850Y-23581D02*
X-34755D01*
Y-18887D01*
G01X-33500Y-3600D02*
Y-13800D01*
X-34755D01*
Y-18887D01*
G01X-31500Y-3600D02*
Y-13800D01*
X-26881D01*
Y-18494D01*
G01X-43750Y-27350D02*
X-8556D01*
G01X-35500Y-3600D02*
Y-10700D01*
G01D02*
X-43750D01*
Y-27350D01*
G01X-35500Y30494D02*
Y25341D01*
G01X-41547Y8447D02*
X-59600D01*
G01D02*
Y21100D01*
G01X-33400Y53700D02*
X-45650D01*
Y24447D01*
X-41547D01*
G01Y22447D02*
X-32900D01*
G01X-41547Y20447D02*
X-48103D01*
Y21047D01*
G01X-41547Y18447D02*
X-51703D01*
Y40847D01*
G01X-41547Y16447D02*
X-54900D01*
G01X-41547Y14447D02*
X-28250D01*
Y23547D01*
X-22100D01*
G01X-41547Y12447D02*
X-50703D01*
G01X-33500Y30494D02*
Y35647D01*
G01X64400Y85500D02*
X70100D01*
Y106500D01*
X-33200D01*
Y66650D01*
X-29250D01*
Y39247D01*
X-23500D01*
Y30494D01*
G01X-15000Y-92500D02*
X-19500D01*
Y-69856D01*
G01X-7300Y-52000D02*
X-13000D01*
Y-63197D01*
X-8347D01*
Y-100951D01*
G01X99400Y-99600D02*
X91550D01*
Y-101950D01*
X-8347D01*
Y-100951D01*
G01X-4000Y-78155D02*
Y-73500D01*
G01D02*
Y-68845D01*
G01Y-73500D02*
X655D01*
G01X-26050Y-52700D02*
Y-42650D01*
X4550D01*
Y-14151D01*
X48200D01*
Y-14150D01*
G01X400Y-33600D02*
X-3850D01*
Y-23581D01*
G01X-8600Y-33600D02*
X-25549D01*
Y-36600D01*
G01X1700Y-56700D02*
X-4000D01*
G01X-16702Y-46800D02*
X6350D01*
Y-91950D01*
G01X-15500Y-3600D02*
Y2447D01*
X-7453D01*
G01X300Y-19200D02*
X-3850D01*
Y-23581D01*
G01X-25500Y-3600D02*
Y20947D01*
G01X41500Y-300D02*
Y-11853D01*
X-23500D01*
Y-3600D01*
G01X18600Y100D02*
Y-10303D01*
X-17500D01*
Y-3600D01*
G01X-8700Y-19200D02*
X-13900D01*
G01X-13500Y-3600D02*
Y-7703D01*
X-8556D01*
G01Y100D02*
Y-7703D01*
G01X76100Y0D02*
Y10447D01*
X-7453D01*
G01X98550Y100D02*
X106600D01*
Y29350D01*
X71650D01*
Y12447D01*
X-7453D01*
G01X-19500Y30494D02*
Y15747D01*
G01X38900Y101300D02*
Y97650D01*
X34751D01*
Y77550D01*
X-11800D01*
Y26391D01*
X-17500D01*
Y30494D01*
G01X-7453Y2447D02*
X2850D01*
Y3750D01*
X48200D01*
Y-14150D01*
G01X-7453Y4447D02*
X-250D01*
Y6350D01*
X27450D01*
G01X9600Y100D02*
X-8556D01*
G01X-7453Y16447D02*
X-11556D01*
Y8147D01*
X-16702D01*
G01X-7453Y18447D02*
X-3350D01*
Y20947D01*
X-750D01*
G01X-7453Y20447D02*
X-14156D01*
Y13847D01*
G01X-7453Y14447D02*
X12150D01*
Y28997D01*
G01X-21500Y30494D02*
Y44997D01*
G01X-24400Y53700D02*
X-18150D01*
Y79100D01*
G01X-8750Y51700D02*
Y48050D01*
X3450D01*
G01X-4600Y51700D02*
X-8750D01*
G01Y66700D02*
Y51700D01*
G01X-4600Y47498D02*
Y51700D01*
G01D02*
Y55902D01*
G01X-15500Y30494D02*
Y38247D01*
G01X29900Y101300D02*
X-18500D01*
Y84700D01*
G01X-20750Y68750D02*
Y79100D01*
G01X-18150D02*
X-20750D01*
G01X4000Y84300D02*
Y79100D01*
X-18150D01*
G01X-27500Y84700D02*
Y79100D01*
X-20750D01*
G01X-8350Y66700D02*
X-8750D01*
G01X-4200D02*
X-8350D01*
G01X43450Y76000D02*
X-8350D01*
Y66700D01*
G01X-4200Y62498D02*
Y66700D01*
G01D02*
Y70902D01*
G01X55900Y-89600D02*
X39750D01*
Y-91950D01*
X6350D01*
G01D02*
Y-92200D01*
X3750D01*
G01X10500Y-67300D02*
X15350D01*
Y-62600D01*
G01X20700Y-84400D02*
X24850D01*
Y-69900D01*
G01X19500Y-67300D02*
X24850D01*
Y-69900D01*
G01X11700Y-84400D02*
X15850D01*
Y-80202D01*
G01X11700Y-88602D02*
Y-84400D01*
G01D02*
Y-80198D01*
G01X33300Y-89600D02*
X38200D01*
Y-73452D01*
X29000D01*
Y-43300D01*
X21100D01*
G01X33300Y-84600D02*
X27450D01*
Y-77602D01*
G01X1700Y-52000D02*
Y-56700D01*
G01X32500Y-300D02*
X24150D01*
G01X21000Y34800D02*
X24150D01*
Y20947D01*
G01X17000Y19500D02*
Y15047D01*
X27450D01*
G01X8000Y19500D02*
X3450D01*
G01X28100Y38100D02*
Y20197D01*
G01X3450Y19500D02*
Y34800D01*
G01X16600D02*
X21000D01*
G01X25900Y59000D02*
X21000D01*
Y34800D01*
G01X250Y59200D02*
Y62900D01*
X21000D01*
Y69000D01*
X25900D01*
G01X4400Y51700D02*
X250D01*
Y59200D01*
G01X25900Y54000D02*
X30800D01*
G01X3450Y34800D02*
Y48050D01*
G01X7600Y34800D02*
X3450D01*
G01X33300Y38100D02*
X28100D01*
G01X30800Y61350D02*
X10100D01*
Y48050D01*
G01D02*
X3450D01*
G01X7600Y30598D02*
Y34800D01*
G01D02*
Y39002D01*
G01X25900Y64000D02*
X38150D01*
Y38100D01*
G01X4800Y66700D02*
X13100D01*
G01X25900Y69000D02*
X42050D01*
G01X30300Y84900D02*
X17150D01*
Y84300D01*
X13000D01*
G01X55900Y-94600D02*
X46749D01*
G01X55900D02*
X67000D01*
G01X46749D02*
Y-99600D01*
X33300D01*
G01X55900D02*
X49349D01*
Y-99099D01*
G01X36400Y-67700D02*
X40550D01*
Y-87250D01*
X60800D01*
Y-92250D01*
X44149D01*
G01X55900Y-84600D02*
X62350D01*
Y-82250D01*
X104300D01*
G01X45400Y-67700D02*
X49550D01*
Y-68500D01*
G01Y-76100D02*
X93650D01*
G01X49550Y-80202D02*
Y-76100D01*
G01Y-68500D02*
Y-76100D01*
G01X51100Y-68500D02*
X49550D01*
G01X76800D02*
X51100D01*
G01D02*
Y-51600D01*
G01X45400Y-71902D02*
Y-67700D01*
G01D02*
Y-63498D01*
G01X45600Y-35000D02*
X66800D01*
Y-21500D01*
X61900D01*
G01X36600Y-35000D02*
X40750D01*
G01Y-31350D02*
Y-35000D01*
G01X61900Y-31500D02*
X50800D01*
G01X40750Y-31350D02*
Y-23100D01*
G01X45200Y-51600D02*
X40750D01*
Y-35000D01*
G01X50800Y-31500D02*
Y-31350D01*
G01D02*
X40750D01*
G01X51100Y-51600D02*
X45200D01*
G01X36600Y-39202D02*
Y-35000D01*
G01D02*
Y-30798D01*
G01X31898Y-35000D02*
X36600D01*
G01X99400Y-58500D02*
X92401D01*
Y-43800D01*
X44900D01*
G01X36200Y-51600D02*
X32050D01*
Y-46900D01*
G01X86900Y-68500D02*
Y-46900D01*
X47446D01*
G01X55950Y-21500D02*
X61900D01*
G01X51746Y-18900D02*
X45200D01*
G01X69400D02*
X51746D01*
G01X61900Y-26500D02*
X51746D01*
Y-18900D01*
G01X66800Y-14150D02*
X51800D01*
G01D02*
X48200D01*
G01X36200Y-18900D02*
X40750D01*
Y-23100D01*
G01X36200Y-23102D02*
Y-18900D01*
G01X31498D02*
X36200D01*
G01X67100Y0D02*
X55950D01*
G01X33500Y21500D02*
X38150D01*
Y38100D01*
G01X51800Y26397D02*
Y46400D01*
X42050D01*
Y69000D01*
G01X42500Y21500D02*
X46650D01*
Y26397D01*
G01X48500Y59000D02*
X43600D01*
Y49220D01*
X63550D01*
G01X48500Y54000D02*
X56500D01*
Y56750D01*
X71850D01*
G01X42300Y38100D02*
X38150D01*
G01X30800Y54000D02*
X33300D01*
G01X30800D02*
Y61350D01*
G01X33300Y54000D02*
Y38100D01*
G01X48500Y64000D02*
X67000D01*
Y68700D01*
G01X54600Y100900D02*
X48100D01*
Y72900D01*
X42050D01*
Y69000D01*
G01X55400Y85500D02*
Y89150D01*
X63600D01*
Y100900D01*
G01X39300Y84900D02*
X43450D01*
Y76000D01*
G01X39300Y80698D02*
Y84900D01*
G01D02*
Y89102D01*
G01X48500Y69000D02*
X60251D01*
Y78070D01*
X98630D01*
G01X76800Y-99600D02*
X88450D01*
G01D02*
Y-94600D01*
X93450D01*
G01X67000D02*
Y-99600D01*
G01D02*
X76800D01*
G01Y-84600D02*
X70850D01*
Y-84850D01*
G01X76800Y-89600D02*
X66500D01*
Y-85450D01*
G01X76800Y-71402D02*
Y-68500D01*
G01D02*
X82252D01*
G01X99400D02*
X86900D01*
G01X99400Y-89600D02*
X82750D01*
G01X84500Y-31500D02*
X108950D01*
Y-37400D01*
G01X104300Y-53500D02*
Y-33850D01*
X73299D01*
Y-14150D01*
G01X76800Y-53500D02*
X66600D01*
G01X76800Y-58500D02*
X61451D01*
G01X84500Y-16500D02*
X96050D01*
Y-13899D01*
G01X73299Y-14150D02*
X80650D01*
Y22400D01*
G01X73299Y-14150D02*
X66800D01*
G01X61900Y-16500D02*
X66800D01*
Y-14150D01*
G01X75899Y-21500D02*
X84500D01*
G01X121100Y-15800D02*
X109700D01*
Y-21500D01*
X84500D01*
G01Y-26500D02*
X111550D01*
G01X89550Y100D02*
X83250D01*
G01X80650Y22400D02*
X76500D01*
G01X100900Y22600D02*
X105050D01*
Y26250D01*
X80650D01*
Y22400D01*
G01X67500D02*
X63250D01*
Y34450D01*
G01X76400Y38100D02*
X102800D01*
G01X67700Y53100D02*
X63550D01*
Y49220D01*
G01X98630Y68070D02*
X112480D01*
Y49220D01*
X63550D01*
G01X108630Y73070D02*
X71850D01*
Y56750D01*
G01X76700Y53100D02*
X71850D01*
Y56750D01*
G01X87050Y53070D02*
X108630D01*
G01X87050Y68700D02*
Y53070D01*
G01X67400Y38100D02*
X63250D01*
Y34450D01*
G01X98630Y78070D02*
X114030D01*
Y34450D01*
X63250D01*
G01X67000Y68700D02*
X62850D01*
Y74620D01*
X65951D01*
G01X76000Y68700D02*
X87050D01*
G01X99400Y-94600D02*
X93450D01*
G01X104300Y-82250D02*
Y-53500D01*
G01X99400Y-84600D02*
X104300D01*
Y-82250D01*
G01X99400Y-63500D02*
X93450D01*
G01X114798Y-86900D02*
X126500D01*
G01X99400Y-53500D02*
X104300D01*
G01X116148Y-59000D02*
X121100D01*
G01X91900Y22600D02*
X96050D01*
Y11500D01*
X94400D01*
Y-8199D01*
X96050D01*
Y-13899D01*
G01X132200Y-21200D02*
X111550D01*
Y-26500D01*
G01X114798Y12100D02*
X126500D01*
G01Y-98602D02*
Y-86900D01*
G01X121100Y-63952D02*
Y-59000D01*
G01X126500Y-86900D02*
Y-75198D01*
G01Y-86900D02*
X138202D01*
G01X121100Y-59000D02*
Y-54048D01*
G01Y-59000D02*
X126052D01*
G01X126500Y398D02*
Y12100D01*
G01D02*
Y23802D01*
G01Y12100D02*
X138202D01*
G54D25*
X-34755Y-18887D03*
X-26881Y-18494D03*
G54D16*
X-91000Y-59100D03*
X-90600Y-41600D03*
X-90700Y-21000D03*
X-99600Y1300D03*
G54D26*
X-31500Y-3600D03*
X-33500D03*
X-35500D03*
Y30494D03*
X-33500D03*
X-31500D03*
X-13500Y-3600D03*
X-15500D03*
X-17500D03*
X-19500D03*
X-21500D03*
X-23500D03*
X-25500D03*
X-27500D03*
X-29500D03*
Y30494D03*
X-27500D03*
X-25500D03*
X-23500D03*
X-21500D03*
X-19500D03*
X-17500D03*
X-15500D03*
X-13500D03*
G54D17*
X-94750Y-67100D03*
X-94450Y-29000D03*
X-94350Y-49600D03*
X-95850Y-6700D03*
X-103350D03*
X-87250Y-67100D03*
X-86950Y-29000D03*
X-86850Y-49600D03*
G54D27*
X-41547Y2447D03*
Y4447D03*
Y6447D03*
Y8447D03*
Y10447D03*
Y12447D03*
Y14447D03*
Y16447D03*
Y18447D03*
Y20447D03*
Y22447D03*
Y24447D03*
X-7453D03*
Y22447D03*
Y20447D03*
Y18447D03*
Y16447D03*
Y14447D03*
Y12447D03*
Y10447D03*
Y8447D03*
Y6447D03*
Y4447D03*
Y2447D03*
G54D18*
X-110850Y-73700D03*
X-98400Y-76300D03*
X-94600Y-37950D03*
X-110850Y-17350D03*
X-91850Y-3500D03*
X-71950Y-97300D03*
X-66700Y-100950D03*
X-87250Y-76300D03*
Y-71100D03*
X-75199Y-63300D03*
X-79750Y-48800D03*
X-66700Y-9900D03*
X-76550Y-3416D03*
X-64100Y30800D03*
Y54783D03*
X-72020Y50799D03*
X-84100D03*
X-59026Y38247D03*
X-68124Y32619D03*
X-57500Y-98351D03*
X-54900Y-73700D03*
X-57500Y-10950D03*
X-35500Y25341D03*
X-32900Y22447D03*
X-48103Y21047D03*
X-54900Y16447D03*
X-50703Y12447D03*
X-33500Y35647D03*
X-58400Y50799D03*
X-51703Y40847D03*
X-19500Y-69856D03*
X-25549Y-36600D03*
X-4000Y-56700D03*
X-16702Y-46800D03*
X-13900Y-19200D03*
X-8556Y-27350D03*
Y-7703D03*
X-19500Y15747D03*
X-25500Y20947D03*
X-16702Y8147D03*
X-750Y20947D03*
X-14156Y13847D03*
X-22100Y23547D03*
X-21500Y44997D03*
X250Y59200D03*
X-15500Y38247D03*
X-20750Y68750D03*
X3750Y-92200D03*
X15350Y-62600D03*
X24850Y-69900D03*
X15850Y-80202D03*
X27450Y-77602D03*
X21100Y-43300D03*
X24150Y-300D03*
Y20947D03*
X27450Y15047D03*
Y6350D03*
X28100Y20197D03*
X12150Y28997D03*
X13100Y66700D03*
X49349Y-99099D03*
X44149Y-92250D03*
X49550Y-80202D03*
X44900Y-43800D03*
X47446Y-46900D03*
X32050D03*
X55950Y-21500D03*
Y0D03*
X51800Y-14150D03*
X40750Y-23100D03*
X51800Y26397D03*
X46650D03*
X82750Y-89600D03*
X70850Y-84850D03*
X66500Y-85450D03*
X86900Y-68500D03*
X66600Y-53500D03*
X61451Y-58500D03*
X83250Y100D03*
X69400Y-18900D03*
X75899Y-21500D03*
X65951Y74620D03*
X93450Y-94600D03*
X93650Y-76100D03*
X93450Y-63500D03*
X108950Y-37400D03*
X96050Y-13899D03*
X102800Y38100D03*
G54D19*
X-74100Y80174D03*
G54D28*
X25900Y54000D03*
Y59000D03*
Y64000D03*
Y69000D03*
X55900Y-89600D03*
Y-94600D03*
Y-99600D03*
X33300D03*
Y-94600D03*
Y-89600D03*
X55900Y-84600D03*
X33300D03*
X61900Y-31500D03*
Y-26500D03*
Y-21500D03*
Y-16500D03*
X48500Y59000D03*
Y54000D03*
Y69000D03*
Y64000D03*
X76800Y-99600D03*
Y-94600D03*
Y-89600D03*
Y-68500D03*
Y-63500D03*
Y-84600D03*
Y-58500D03*
Y-53500D03*
X84500Y-31500D03*
Y-16500D03*
Y-21500D03*
Y-26500D03*
X99400Y-89600D03*
Y-94600D03*
Y-99600D03*
Y-63500D03*
Y-68500D03*
Y-84600D03*
Y-53500D03*
Y-58500D03*
G54D29*
X121622Y40078D03*
Y101062D03*
M02*
