G04 ================== begin FILE IDENTIFICATION RECORD ==================*
G04 Layout Name:  remotepanasonicDB9-rout-V3-0.brd*
G04 Film Name:    Gerbermasktop*
G04 File Format:  Gerber RS274X*
G04 File Origin:  Cadence Allegro 16.6-P004*
G04 Origin Date:  Sun Jan 17 09:42:51 2016*
G04 *
G04 Layer:  VIA CLASS/SOLDERMASK_TOP*
G04 Layer:  PIN/SOLDERMASK_TOP*
G04 Layer:  PACKAGE GEOMETRY/SOLDERMASK_TOP*
G04 Layer:  DRAWING FORMAT/OUTLINE*
G04 Layer:  DRAWING FORMAT/TITLE_BLOCK*
G04 Layer:  DRAWING FORMAT/TITLE_DATA*
G04 Layer:  DRAWING FORMAT/REVISION_BLOCK*
G04 Layer:  DRAWING FORMAT/REVISION_DATA*
G04 Layer:  BOARD GEOMETRY/OUTLINE*
G04 Layer:  BOARD GEOMETRY/SOLDERMASK_TOP*
G04 *
G04 Offset:    (0.00 0.00)*
G04 Mirror:    No*
G04 Mode:      Positive*
G04 Rotation:  0*
G04 FullContactRelief:  No*
G04 UndefLineWidth:     2.00*
G04 ================== end FILE IDENTIFICATION RECORD ====================*
%FSLAX25Y25*MOIN*%
%IR0*IPPOS*OFA0.00000B0.00000*MIA0B0*SFA1.00000B1.00000*%
%ADD19C,.05*%
%ADD12C,.07*%
%ADD30C,.054*%
%ADD20R,.05X.05*%
%ADD29C,.058*%
%ADD13R,.07X.07*%
%ADD17R,.036X.036*%
%ADD22C,.05906*%
%ADD23R,.05906X.05906*%
%ADD15O,.07874X.16535*%
%ADD14O,.16535X.07874*%
%ADD28C,.12*%
%ADD11C,.21*%
%ADD10R,.06X.05*%
%ADD16R,.036X.05*%
%ADD26O,.05906X.011*%
%ADD25O,.011X.05906*%
%ADD27O,.079X.028*%
%ADD24O,.05906X.07874*%
%AMMACRO18*
4,1,40,-.20866,-.20787,
.20866,-.20787,
.209344,-.207811,
.210006,-.207634,
.210629,-.207345,
.211191,-.206952,
.211677,-.206467,
.212071,-.205905,
.212361,-.205284,
.21254,-.204621,
.2126,-.20394,
.2126,.20394,
.212539,.204623,
.212361,.205286,
.21207,.205907,
.211675,.206469,
.211189,.206953,
.210627,.207346,
.210004,.207635,
.209341,.207811,
.20866,.20787,
-.20866,.20787,
-.209344,.207811,
-.210006,.207634,
-.210629,.207345,
-.211191,.206952,
-.211677,.206467,
-.212071,.205905,
-.212361,.205284,
-.21254,.204621,
-.2126,.20394,
-.2126,-.20394,
-.212539,-.204623,
-.212361,-.205286,
-.21207,-.205907,
-.211675,-.206469,
-.211189,-.206953,
-.210627,-.207346,
-.210004,-.207635,
-.209341,-.207811,
-.20866,-.20787,
0.0*
%
%ADD18MACRO18*%
%AMMACRO21*
4,1,44,-.02677,-.07087,
.02677,-.07087,
.027454,-.07081,
.028117,-.070633,
.02874,-.070343,
.029302,-.069949,
.029788,-.069464,
.030182,-.068902,
.030472,-.06828,
.03065,-.067616,
.03071,-.066933,
.03071,-.06693,
.03071,.06693,
.03065,.067614,
.030473,.068277,
.030183,.0689,
.029789,.069462,
.029304,.069948,
.028742,.070342,
.02812,.070632,
.027456,.07081,
.026773,.07087,
.02677,.07087,
-.02677,.07087,
-.027454,.07081,
-.028117,.070633,
-.02874,.070343,
-.029302,.069949,
-.029788,.069464,
-.030182,.068902,
-.030472,.06828,
-.03065,.067616,
-.03071,.066933,
-.03071,.06693,
-.03071,-.06693,
-.03065,-.067614,
-.030473,-.068277,
-.030183,-.0689,
-.029789,-.069462,
-.029304,-.069948,
-.028742,-.070342,
-.02812,-.070632,
-.027456,-.07081,
-.026773,-.07087,
-.02677,-.07087,
0.0*
%
%ADD21MACRO21*%
%ADD31C,.002*%
G75*
%LPD*%
G75*
G54D10*
X-135500Y-96800D03*
X-144500D03*
X-106700Y-97200D03*
X-115700D03*
X-88300Y-97300D03*
X-88500Y-82800D03*
X-79300Y-97300D03*
X-61000Y-68000D03*
X-70000D03*
X-79500Y-82800D03*
X-61000Y-48800D03*
X-70000D03*
X-61100Y-25900D03*
X-70100D03*
X-73900Y-9900D03*
X-82900D03*
X-74300Y20100D03*
X-83300D03*
X-74500Y5500D03*
X-83500D03*
X-43900Y-92000D03*
X-52900D03*
X-30200Y-52700D03*
X-39200D03*
X-30600Y-36600D03*
X-39600D03*
X-33400Y53700D03*
X-15000Y-92500D03*
X-24000D03*
X1700Y-52000D03*
X-7300D03*
X400Y-33600D03*
X-8600D03*
X300Y-19200D03*
X-8700D03*
X-24400Y53700D03*
X-4600Y51700D03*
X-4200Y66700D03*
X-18500Y84700D03*
X-27500D03*
X20700Y-84400D03*
X11700D03*
X19500Y-67300D03*
X10500D03*
X18600Y100D03*
X9600D03*
X17000Y19500D03*
X8000D03*
X16600Y34800D03*
X7600D03*
X4400Y51700D03*
X4800Y66700D03*
X13000Y84300D03*
X4000D03*
X30300Y84900D03*
X29900Y101300D03*
X45400Y-67700D03*
X36400D03*
X45200Y-51600D03*
X36200D03*
X45600Y-35000D03*
X36600D03*
X41500Y-300D03*
X32500D03*
X45200Y-18900D03*
X36200D03*
X42500Y21500D03*
X33500D03*
X42300Y38100D03*
X33300D03*
X39300Y84900D03*
X55400Y85500D03*
X54600Y100900D03*
X38900Y101300D03*
X89550Y100D03*
X76100Y0D03*
X67100D03*
X76500Y22400D03*
X67500D03*
X91900Y22600D03*
X76400Y38100D03*
X67400D03*
X76700Y53100D03*
X67700D03*
X67000Y68700D03*
X76000D03*
X64400Y85500D03*
X63600Y100900D03*
X98550Y100D03*
X100900Y22600D03*
G54D11*
X-126500Y-69200D03*
Y29800D03*
X126500Y-86900D03*
Y12100D03*
G54D20*
X-59600Y21100D03*
G54D21*
X-84100Y41709D03*
X-74100D03*
X-64100D03*
G54D30*
X98630Y58070D03*
X108630Y63070D03*
X98630Y68070D03*
X108630Y73070D03*
X98630Y78070D03*
X108630Y83070D03*
X98630Y88070D03*
X152921Y44487D03*
Y54487D03*
Y86653D03*
Y96653D03*
G54D12*
X-121100Y-30500D03*
Y-41300D03*
X-132200Y-35900D03*
X-121100Y-8900D03*
Y-19700D03*
X-132200Y-3500D03*
Y-14300D03*
Y-25100D03*
X121100Y-48200D03*
Y-37400D03*
Y-26600D03*
Y-15800D03*
X132200Y-53600D03*
Y-42800D03*
Y-32000D03*
Y-21200D03*
G54D31*
G01X-179134Y-110236D02*
Y110236D01*
X179134D01*
Y-110236D01*
X-179134D01*
G54D22*
X-34000Y-73500D03*
X-4000D03*
X-14000D03*
X-24000D03*
G54D13*
X-121100Y1900D03*
X121100Y-59000D03*
G54D14*
X-131598Y63096D03*
G54D23*
X-44000Y-73500D03*
G54D24*
X-34755Y-18887D03*
X-26881Y-18494D03*
G54D15*
X-144197Y81600D03*
X-119000D03*
G54D25*
X-31500Y-3600D03*
X-33500D03*
X-35500D03*
Y30494D03*
X-33500D03*
X-31500D03*
X-13500Y-3600D03*
X-15500D03*
X-17500D03*
X-19500D03*
X-21500D03*
X-23500D03*
X-25500D03*
X-27500D03*
X-29500D03*
Y30494D03*
X-27500D03*
X-25500D03*
X-23500D03*
X-21500D03*
X-19500D03*
X-17500D03*
X-15500D03*
X-13500D03*
G54D16*
X-91000Y-59100D03*
X-90600Y-41600D03*
X-90700Y-21000D03*
X-99600Y1300D03*
G54D26*
X-41547Y2447D03*
Y4447D03*
Y6447D03*
Y8447D03*
Y10447D03*
Y12447D03*
Y14447D03*
Y16447D03*
Y18447D03*
Y20447D03*
Y22447D03*
Y24447D03*
X-7453D03*
Y22447D03*
Y20447D03*
Y18447D03*
Y16447D03*
Y14447D03*
Y12447D03*
Y10447D03*
Y8447D03*
Y6447D03*
Y4447D03*
Y2447D03*
G54D17*
X-94750Y-67100D03*
X-94450Y-29000D03*
X-94350Y-49600D03*
X-95850Y-6700D03*
X-103350D03*
X-87250Y-67100D03*
X-86950Y-29000D03*
X-86850Y-49600D03*
G54D18*
X-74100Y80174D03*
G54D27*
X25900Y54000D03*
Y59000D03*
Y64000D03*
Y69000D03*
X55900Y-89600D03*
Y-94600D03*
Y-99600D03*
X33300D03*
Y-94600D03*
Y-89600D03*
X55900Y-84600D03*
X33300D03*
X61900Y-31500D03*
Y-26500D03*
Y-21500D03*
Y-16500D03*
X48500Y59000D03*
Y54000D03*
Y69000D03*
Y64000D03*
X76800Y-99600D03*
Y-94600D03*
Y-89600D03*
Y-68500D03*
Y-63500D03*
Y-84600D03*
Y-58500D03*
Y-53500D03*
X84500Y-31500D03*
Y-16500D03*
Y-21500D03*
Y-26500D03*
X99400Y-89600D03*
Y-94600D03*
Y-99600D03*
Y-63500D03*
Y-68500D03*
Y-84600D03*
Y-53500D03*
Y-58500D03*
G54D28*
X121622Y40078D03*
Y101062D03*
G54D19*
X-59600Y234D03*
G54D29*
X108630Y53070D03*
M02*
